<?xml version="1.0" encoding="utf-8"?>
<!DOCTYPE svg PUBLIC "-//W3C//DTD SVG 20010904//EN" "http://www.w3.org/TR/2001/REC-SVG-20010904/DTD/svg10.dtd">
<svg version="1.0" xmlns="http://www.w3.org/2000/svg" width="460px" height="460px" viewBox="0 0 460 460" preserveAspectRatio="xMidYMid meet">
 <g fill="#000000">
  <path d="M205.3 457.5 c-13.6 -1.8 -29.4 -5.1 -42 -8.6 -68.1 -19.1 -125.3 -75.1 -148.9 -145.5 -4.8 -14.2 -9.1 -33.7 -10.5 -46.8 -1.7 -16.1 -0.6 -54 2 -68.6 5 -28.8 17.4 -59.6 34 -84.6 37 -55.8 91.7 -89 165.1 -100 15.4 -2.4 41.7 -2.4 56.9 0 76.5 11.7 140 57.8 173.6 126.1 8.2 16.6 13 30.1 17.7 49.3 2.9 12.2 3 13.7 3.5 40.9 0.6 33.3 -0.4 45.5 -5.1 64.3 -12.1 48 -39.4 92.1 -75.7 122.2 -33.4 27.6 -72.3 44.8 -113.9 50.2 -17.5 2.3 -44.1 2.9 -56.7 1.1z m53.3 -16.6 c31.8 -2.6 67.8 -17.2 98.2 -39.8 11.8 -8.8 33.3 -30.4 42.4 -42.7 25.9 -35 41.6 -76.7 43.4 -115.5 0.7 -14.7 -0.9 -42 -3.2 -53.9 -5.7 -29.9 -22.3 -65.4 -42.2 -90.5 -35.6 -44.7 -85.5 -72.8 -142.2 -80.1 -18.9 -2.4 -41.8 -1 -71.5 4.2 -27.6 4.9 -60.3 20.5 -86.5 41.4 -9.7 7.7 -29.4 27.6 -36.2 36.5 -20.5 26.9 -33.9 57.9 -40.4 93 -2.4 13.6 -3 46.9 -1 62.1 4.9 37.7 19.9 74.3 42.7 104.6 8.8 11.8 30.5 33.1 43.1 42.4 24.4 18 51.6 29.9 83 36.5 16.5 3.4 43.2 4.1 70.4 1.8z"/>
  <path d="M256.7 422.5 c-0.8 -1.9 0.8 -6.1 2.5 -6.8 0.7 -0.2 0.9 -0.8 0.4 -1.3 -0.5 -0.5 -1.5 0.1 -2.3 1.4 -0.9 1.2 -2.4 2.2 -3.4 2.2 -1.1 0 -1.9 0.5 -1.9 1 0 0.6 -0.9 1 -2 1 -1.1 0 -2 -0.7 -2 -1.5 0 -0.8 -0.4 -1.5 -1 -1.5 -0.5 0 -1 0.9 -1 2 0 2.4 -3.2 2.6 -6.9 0.6 -1.8 -1 -2.9 -1.1 -4.2 -0.3 -1.3 0.8 -2.4 0.6 -4.5 -0.7 -2.5 -1.7 -3.4 -1.7 -11.5 -0.6 -10.6 1.5 -26.6 0.8 -35.9 -1.6 -7.7 -1.9 -20.4 -7.7 -28.3 -12.8 l-5.8 -3.6 -2.1 4.7 c-2.3 5.2 -2.5 5 -4.2 -3.7 -1 -4.8 -1.4 -5.5 -3.3 -5.3 -1.8 0.2 -2.4 -0.5 -3.2 -3.5 -0.5 -2 -1.1 -4.8 -1.3 -6.1 -0.3 -2.2 -0.7 -1.9 -4.6 3.2 -4 5.4 -6.2 7 -6.2 4.6 0 -0.6 1.1 -5.6 2.5 -11.1 1.4 -5.5 2.4 -10.5 2.3 -11 -0.2 -0.5 -1.6 0 -3.1 1.2 -1.6 1.2 -3 2 -3.2 1.8 -0.2 -0.2 0.2 -4.6 1 -9.8 2.1 -14 2.2 -13.6 -2.1 -10.9 l-3.7 2.2 0.7 -8.9 c0.4 -4.9 0.9 -10.6 1.2 -12.6 l0.6 -3.8 -3.7 0 -3.8 0 0.7 -5.7 c0.4 -3.1 0.9 -6.8 1.3 -8.2 l0.6 -2.4 -3.5 2.6 c-3.8 2.9 -5.8 3.4 -5.8 1.5 0.1 -0.7 0.9 -5.3 2 -10.3 1 -4.9 1.7 -9.1 1.6 -9.3 -0.2 -0.1 -2.4 2.1 -5 4.9 -2.6 2.8 -4.9 4.9 -5.1 4.7 -0.2 -0.2 0 -7.8 0.5 -16.8 0.5 -9.1 0.9 -27 1 -39.8 l0 -23.2 -3.4 -6.9 c-5.1 -10.1 -5.3 -14 -1.7 -31.5 1.7 -8.3 2.9 -15.2 2.6 -15.4 -0.2 -0.2 -1.9 0.5 -3.8 1.7 -4.6 2.8 -5 2.7 -3.1 -1.1 l1.7 -3.2 -2.9 1.9 c-1.6 1 -4.5 2.9 -6.4 4.2 -3.6 2.4 -6 3 -6 1.4 0 -0.5 5.4 -8.2 12 -17.2 6.6 -9 12 -17 12 -17.6 0 -0.8 -1.3 -1.3 -3 -1.3 -1.6 0 -3 -0.3 -3 -0.8 0 -0.4 2 -3.4 4.5 -6.7 2.5 -3.3 4.5 -6.3 4.5 -6.7 0 -0.4 -1.3 -1.4 -3 -2.3 -1.6 -0.9 -3 -1.9 -3 -2.2 0 -0.4 2.1 -2.9 4.7 -5.5 l4.7 -4.8 -3.6 0 c-2 0 -3.9 -0.4 -4.2 -0.9 -0.3 -0.4 1.5 -2.3 4 -4 5.5 -4 11.4 -10 11.4 -11.6 0 -0.7 2 -4 4.5 -7.4 l4.5 -6.1 -4.8 0.6 -4.7 0.6 7.3 -6.9 c5.2 -5 7.1 -7.4 6.6 -8.6 -0.4 -1.2 1.3 -3.7 5.7 -8.3 14.3 -14.9 34.7 -29 50.6 -35 10.6 -4 11.6 -2.7 1.6 2.1 -15.2 7.2 -35.9 22 -46.7 33.4 -2.8 3 -2.9 3.1 -0.8 3.1 1.2 0 2.2 0.3 2.2 0.7 0 0.4 -2.8 3.6 -6.2 7 -5.3 5.3 -5.9 6.3 -4 6.3 3.4 0 2.7 1.9 -3.2 9.3 -3.6 4.6 -5.2 7.4 -4.9 8.7 0.6 2.1 -3.8 10.4 -11 20.9 l-4.3 6.5 3.7 3.3 3.7 3.4 -4.3 9.2 c-6.7 14.3 -7.7 23 -1.9 16.6 2.5 -2.8 7.1 -5.1 7.9 -4 0.3 0.5 0.1 2.1 -0.5 3.6 -1.6 4.2 -1.3 4.5 5.3 4.5 5.9 0 6.5 0.2 7.5 2.5 0.7 1.4 1.5 5.7 1.8 9.6 l0.7 6.9 2.3 -1.5 c4.1 -2.6 4.4 -1.7 1.7 4.6 -2.2 5 -2.4 6.2 -1.2 6.9 1.1 0.7 1 1.7 -0.9 5.5 -1.2 2.5 -2.2 5.7 -2.2 7.1 0 1.4 -1.1 4.5 -2.5 6.9 -2.2 3.7 -2.3 4.4 -1 4.9 1.4 0.5 1.4 0.9 0.1 3.5 -2 3.8 -7 6.8 -14.2 8.4 l-5.9 1.3 -0.6 7.5 c-1 11.3 -1 50.9 -0.1 50.9 2 0 4.4 -8 5.2 -17.3 0.5 -5.5 0.6 -10.6 0.3 -11.3 -0.5 -1.4 1.5 -18.5 2.3 -19.3 1.1 -1.2 1.7 1.9 3 15.1 0.8 7.9 3.2 26 5.4 40.3 4.3 28.8 5.6 38.2 6.6 50 0.9 10.4 1.7 12.5 4.4 11.8 2.2 -0.6 2.2 -0.5 1.5 9 -0.7 9.5 -0.7 9.5 1.6 9.9 2 0.2 2.5 1 2.7 4.1 l0.3 3.8 5.1 -4.1 c4.7 -3.7 7.8 -5 7.8 -3.2 0 0.4 -1 2.5 -2.1 4.7 -1.2 2.2 -2.8 5.4 -3.5 7.2 l-1.4 3.1 6.9 5.1 c3.8 2.8 7.1 5.1 7.5 5.1 0.4 0 1.1 -1.1 1.6 -2.5 1.2 -3.2 3.5 -3.4 2.6 -0.2 -2 7.1 -2.5 6.4 6.7 9.2 11.4 3.5 29.4 7.5 33.6 7.5 1.9 0 6.4 -0.5 10 -1.2 7.5 -1.3 7.3 -1.5 -7.6 -4.1 -25 -4.5 -43.8 -25.7 -43.7 -49.3 0.1 -9.1 3 -15.5 14.3 -31.3 9.5 -13.3 11.1 -17.8 11.1 -30.7 0 -12.7 -0.2 -13 -5.7 -8.8 -6.6 5 -7.7 4.5 -4.5 -2.2 l1.7 -3.7 -3 -2.1 c-1.6 -1.1 -5.3 -4.4 -8.2 -7.3 -4.7 -4.9 -8.3 -6.7 -8.3 -4.3 0 0.6 -0.6 1 -1.4 1 -1.4 0 -2.7 -16.4 -3 -37.6 -0.1 -8.3 0.1 -9.4 2.7 -13.2 3.3 -5.1 10.2 -10.2 17.1 -12.8 4 -1.5 7.6 -1.9 17.1 -1.8 11.1 0 12.8 0.3 22 3.6 9.5 3.4 10.9 3.6 26.8 4.1 l16.8 0.6 6.4 -4.4 c8.4 -5.7 14.8 -7.1 25.9 -5.5 9.7 1.4 24 6 29.6 9.5 6.9 4.3 7.4 5.9 8.1 24 0.3 8.8 1 16.8 1.4 17.8 0.6 1.4 0.1 1.7 -3.2 1.7 l-4 0 -3.7 8.4 c-3.6 8 -3.9 8.4 -7.4 8.9 -2.1 0.3 -6.1 1.4 -9 2.4 -4.4 1.5 -5.2 2.1 -4.7 3.8 1.5 5.3 2.5 13.8 2.5 21.6 0 4.7 0.5 10 1.1 11.8 1.5 4.2 0.7 4.8 -3 2 l-3.1 -2.3 -2.5 2.4 c-2.5 2.3 -2.5 2.3 -2.5 0.2 0 -1.1 0.7 -5.1 1.6 -8.9 2.1 -8.8 1.4 -21.2 -1.4 -27.5 -2.6 -6 -6.2 -8.3 -12.7 -8.3 -5.3 0 -9.3 1.7 -24 10 -9.9 5.6 -12.7 5.7 -29 1.1 -16.1 -4.5 -21.3 -5.1 -25.9 -3.2 -5.3 2.2 -7 6.9 -6.2 16.6 0.6 7.7 1.8 12.5 5.5 21.9 1.2 2.9 1.9 5.6 1.7 5.9 -0.7 0.6 -4.1 -3.4 -6.1 -7 -0.9 -1.6 -1.7 -2.8 -1.9 -2.8 -0.8 0 -20.3 28.5 -22.7 33 -2 3.8 -2.4 6 -2.4 13.6 0 8.4 0.2 9.5 3.7 16.6 2.8 5.6 5.6 9.2 10.6 14 7.4 6.9 10.9 9 19.4 11.2 16.8 4.4 61 4.8 76.2 0.7 15.9 -4.2 23.1 -8.9 28.6 -18.6 6 -10.6 9.6 -28.7 8 -40.5 -0.5 -3.6 -1.1 -8.7 -1.4 -11.5 l-0.6 -5 3.7 7.5 c3.7 7.3 3.8 7.8 3.8 18.5 0 13.2 -2.1 22.2 -7.6 33 -2.1 4.1 -3.6 7.5 -3.3 7.5 0.3 0 3.7 -1.9 7.6 -4.1 3.9 -2.3 9.9 -5.4 13.4 -7 3.5 -1.6 7.1 -4 8 -5.4 0.9 -1.4 2.3 -2.5 3.1 -2.5 1.2 0 1.4 -1 0.8 -5.2 l-0.6 -5.3 2.4 2.7 c1.4 1.5 2.8 2.4 3.1 2.1 0.3 -0.4 0.6 -2.7 0.6 -5.1 l0 -4.5 2.5 2.3 2.4 2.3 -0.6 -5.3 -0.6 -5.3 2.8 0.7 2.8 0.7 -0.7 -8 c-0.4 -4.5 -0.5 -8.1 -0.3 -8.1 0.3 0 1.5 1.5 2.7 3.3 2 2.9 2.1 3 1.6 0.7 -0.2 -1.4 -0.8 -5.8 -1.2 -9.9 -0.6 -6.7 -0.5 -7.4 1 -6.8 2 0.8 2 0.5 0.1 -5.7 -2.1 -6.7 -1.8 -7.6 1 -4.3 2.9 3.3 3.1 2.6 1.3 -6.9 -0.9 -4.9 -0.9 -7.6 0 -11.4 1.1 -4.8 0.9 -5.8 -2.4 -16.3 -2 -6.2 -3.9 -11.9 -4.2 -12.7 -0.3 -0.8 0.9 -0.2 2.6 1.4 l3.2 2.9 -3 -6.9 c-3.2 -7.5 -3.6 -10 -1.8 -10.6 0.8 -0.3 -0.6 -4.9 -4.5 -14.1 -6.9 -16.4 -6.9 -17 -2.5 -14.6 3.6 1.9 3.1 0.1 -1.6 -6.5 -4.8 -6.7 -5.7 -9.6 -3 -9.6 2.1 0 1.4 -2 -5.3 -15.4 -4.9 -9.8 -5.3 -11.1 -3.9 -12.1 1.4 -1.1 1.2 -1.7 -1.9 -5.6 -1.9 -2.4 -3.5 -4.8 -3.5 -5.2 0 -0.5 2 -0.5 4.5 -0.1 2.5 0.3 4.5 0.4 4.5 0.1 0 -0.3 -1.1 -2.9 -2.4 -5.8 -1.4 -2.9 -2.3 -5.6 -2 -6.1 0.3 -0.4 2.2 0.1 4.3 1.2 l3.8 1.9 -0.8 -4.2 c-1.2 -6.5 -4.7 -15.1 -7.8 -19.3 -1.6 -2.2 -6 -6.1 -10 -8.9 -3.9 -2.7 -7.1 -5.6 -7.1 -6.4 0 -0.7 0.6 -1.1 1.4 -0.8 5.3 2 15.3 4.7 17.5 4.7 2.2 -0.1 1.6 -0.6 -3.1 -3.1 -4 -2 -5.8 -3.5 -5.8 -4.8 0 -1.1 0.6 -2.1 1.3 -2.4 2 -0.6 -0.6 -3 -6.3 -5.7 -2.7 -1.3 -5 -2.7 -5 -3.2 0 -0.4 1.8 -0.8 3.9 -0.8 2.2 0 4.3 -0.4 4.6 -1 0.8 -1.3 -8.4 -7.1 -22.5 -14.3 l-11.5 -5.8 8 0.6 c4.4 0.4 8.8 0.9 9.8 1.1 0.9 0.3 1.7 0.2 1.7 -0.2 0 -0.4 -4.8 -5.6 -10.6 -11.5 -10.6 -10.8 -12.3 -13.9 -7.9 -14.8 2 -0.3 8.5 2.6 8.5 3.9 0 0.5 -1.2 1.1 -2.7 1.5 l-2.7 0.6 3.5 2.7 c1.8 1.4 5 4.3 6.9 6.4 1.9 2 6.6 6.1 10.4 9 3.8 2.9 7.1 5.8 7.3 6.5 0.3 0.7 -1 1.6 -2.9 2.1 l-3.3 0.9 5 3 c8.7 5.3 14.4 9.7 15.7 12.1 1.1 2.1 1 2.5 -0.7 3.5 -1.9 1.1 -1.9 1.1 0.4 1.7 3.2 0.7 3.7 2.4 1.1 3.6 -1.8 0.8 -1.1 1.6 6.6 7.3 9.2 6.8 9.4 7.8 2.1 8 l-2.8 0.1 5.1 6.6 c5.2 6.7 5.9 8.4 3.8 8.4 -0.7 0 1.8 1.7 5.6 3.8 3.8 2.1 7.8 4.9 8.8 6.2 3.3 4.5 9.9 25.9 10.5 34.1 0.6 8.5 0 11 -5.8 24.1 -2.1 4.8 -4.7 11.5 -5.6 14.9 -1.2 4.2 -2.3 6.3 -3.5 6.7 -1 0.2 -1.8 0.9 -1.8 1.6 0 0.6 2 7.8 4.5 16 4.9 16.2 5.1 17.2 3.3 17.8 -0.8 0.3 -0.7 1.6 0.5 4.6 2.4 6.1 2.3 7.3 -1 6.6 l-2.8 -0.6 0 25.1 c0 22 -0.2 25.2 -1.6 26.3 -1.2 0.9 -1.8 3.4 -2.2 8.5 -0.2 4 -0.9 7.8 -1.5 8.5 -0.5 0.7 -1.2 2.2 -1.4 3.3 -0.2 1.3 -1.1 2 -2.8 2 -2.3 0 -2.4 0.3 -2.1 5.3 0.2 5.1 0.1 5.3 -2.1 5 -1.7 -0.2 -2.4 0.2 -2.6 2 -0.2 1.2 -1 2.2 -1.7 2.2 -0.8 0 -1.9 0.9 -2.5 2 -0.6 1.1 -2 2 -3 2 -1.1 0 -2 0.4 -2 0.9 0 0.5 -2.1 1.9 -4.7 3.1 -2.7 1.2 -8.9 4.6 -13.9 7.5 -5 2.9 -13.5 7.3 -19 9.9 -11.2 5.3 -13.5 7.2 -16.4 13.2 -1.2 2.3 -2.8 4.8 -3.6 5.4 -1.2 1 -1.4 0.7 -1.4 -1.9 0 -1.7 -0.3 -3.1 -0.7 -3.1 -0.5 0 -3 1.8 -5.8 4 -4.9 3.9 -7.5 5 -7.5 3 0 -0.5 -1.3 -0.7 -3 -0.3 -2.5 0.4 -3 0.2 -3 -1.3 -0.1 -1.5 -0.6 -1.3 -2.9 1.4 -2.3 2.6 -3 3 -3.4 1.7z m29.3 -10.4 c0 -0.5 0.3 -1.8 0.7 -2.8 0.6 -1.6 0.5 -1.6 -1 -0.4 -1.9 1.5 -2.3 4.1 -0.7 4.1 0.6 0 1 -0.4 1 -0.9z m-90.4 -133.2 c1 -1.2 3.5 -3 5.6 -4 6.5 -3.3 10.4 -3.3 25 0 17.9 4.1 20.4 4 33.5 -1.1 9.2 -3.5 12 -4.2 18.3 -4.2 6.4 -0.1 8.4 0.3 12.9 2.7 6.5 3.4 7.1 3.4 4 0.1 -1.3 -1.4 -6.3 -4.6 -11.1 -7.1 -8 -4.1 -11.2 -7.3 -7.3 -7.3 2.4 0 1.8 -1.4 -4.1 -9 -3.1 -3.9 -5.4 -7.4 -5.1 -7.7 1.5 -1.4 24 20.6 29.4 28.8 1.4 2.1 3 3.9 3.5 3.9 1.5 0 5.1 -2.1 7.6 -4.3 2.9 -2.7 2.8 -5.4 -0.4 -10 -1.4 -2.1 -2.4 -4.1 -2.1 -4.3 0.2 -0.3 3 0.5 6.2 1.7 6.8 2.5 8.3 1.8 6.6 -3.4 -0.7 -1.9 -2.1 -4.3 -3.1 -5.2 -2.9 -2.6 -2.5 -3.5 1.5 -3.5 4.3 0 6.3 -2.7 7.2 -9.7 0.8 -7.2 -2.1 -13.3 -7.9 -16.7 -4.2 -2.4 -13.8 -4.7 -13.8 -3.2 0 0.4 2.5 3.6 5.5 7.3 3 3.6 5.2 7 4.9 7.5 -0.3 0.4 -4.9 0.8 -10.3 0.8 -18.4 0 -25.7 2.6 -8.6 3 3.9 0.2 8.4 0.5 10 0.9 2.6 0.6 2.2 0.9 -4 2.1 l-7 1.3 3.5 1.5 c5.6 2.5 1.1 2.6 -6 0.2 -3.4 -1.2 -10.1 -4.1 -14.9 -6.4 l-8.6 -4.4 4.4 -0.9 c5.1 -1 6.7 -2.9 5.7 -6.7 -0.5 -2.2 -1.1 -2.6 -2.9 -2 -2.2 0.6 -2.2 0.6 0.2 -2 4.2 -4.5 0 -3.1 -6.8 2.4 -3.4 2.8 -7 5 -8 5 -1 0 -4.9 -1.1 -8.8 -2.4 -6.8 -2.4 -7.2 -2.5 -13.4 -1 -7.3 1.7 -10.5 1.3 -18.4 -2.1 -6.8 -3.1 -7.9 -3.1 -6.5 -0.5 1.3 2.5 0.9 2.5 -4 0 -2.2 -1.1 -4.2 -2 -4.5 -2 -0.9 0 -0.6 7.7 0.5 10.4 0.7 1.8 1.7 2.6 3.4 2.6 4.7 0 3.6 1.8 -1.6 2.7 l-5.3 0.9 5.5 1.1 c5.4 1 5.5 1 2.7 2.2 -9.7 3.9 -33.7 7.8 -33.7 5.4 0 -1.2 4.7 -2.3 10.1 -2.3 5 0 5.9 -1.7 1.4 -2.6 -1.9 -0.3 -3.5 -1.2 -3.5 -1.9 0 -1.6 -3.1 -2.4 -9 -2.6 -9.3 -0.1 -9.1 -0.8 2.1 -10 9.4 -7.6 10.1 -8.4 7.7 -8.7 -3.1 -0.4 -11.4 3.6 -14.5 7 -5.3 5.6 -7.1 17.3 -4.4 27.5 1.6 5.8 2.9 6.6 8.1 4.8 2.3 -0.8 4.5 -1.5 4.7 -1.5 0.3 0 -1.1 1.8 -3.1 4 -4.1 4.5 -4.8 9.8 -2 13.8 2.8 4 9.4 8.2 12.9 8.2 1.8 0 3.8 0.7 4.5 1.5 1.7 2.1 3.3 1.9 5.6 -0.6z m-11.6 -51.4 c0 -1.9 -2.4 -3 -4.1 -1.9 -0.9 0.5 -0.7 1.1 0.6 2.1 2.4 1.7 3.5 1.7 3.5 -0.2z m15 -2.6 c1.2 -2.1 0.3 -4 -3 -6.6 -1.6 -1.2 -4.2 0.4 -6.1 3.9 -1.5 2.7 3.3 7.3 6.1 5.8 1.1 -0.6 2.4 -2 3 -3.1z m164.7 2.9 c0.4 -0.7 1 -10.5 1.3 -21.7 0.4 -15.2 0.8 -20.5 1.8 -20.9 1.6 -0.5 4.1 5.5 5.1 12.6 0.8 5.6 0.8 5.7 2 2.8 1.5 -3.6 1 -5.8 -4.1 -21.4 -5.1 -15.7 -6.5 -17.4 -14.6 -18 -3.4 -0.2 -6.2 0 -6.2 0.4 0 0.5 1.1 2.7 2.5 4.9 3.2 5.3 3.1 6.5 -0.5 6.5 -3.7 0 -3.8 1 -0.4 4.4 3 3 4.6 3.2 6.4 1.1 1.8 -2.1 5 -1.9 5 0.3 0 2.1 -3.5 5.6 -10.5 10.2 l-4.9 3.4 3.1 0.8 c2.9 0.8 10.3 7.7 10.3 9.8 0 0.6 -0.9 1 -2.1 1 -1.5 0 -1.9 0.4 -1.5 1.6 1.6 4.2 1.8 6.7 0.6 7.4 -1.1 0.7 -1.1 1.6 -0.1 5.2 3 9.9 4.8 12.6 6.8 9.6z m-74.7 -2.8 c2.5 -2.5 2.5 -4.5 -0.1 -7.1 -2.1 -2.1 -5.1 -1.9 -7.9 0.7 -1.3 1.2 -1.2 1.8 0.4 4.9 2.2 4 4.6 4.5 7.6 1.5z m11.9 -0.7 c-2.9 -3.7 -4.9 -4.3 -4.9 -1.5 0 2.5 0.9 3.2 3.8 3.2 2.2 0 2.3 -0.2 1.1 -1.7z m-187.4 -6.3 c1 -1.6 -2.3 -7.5 -5.5 -9.9 -5.1 -3.7 -3.8 -11.1 2.9 -17.5 1.7 -1.6 3.3 -2.7 3.6 -2.4 0.3 0.3 -0.6 3.6 -2 7.3 -1.4 3.7 -2.5 7.8 -2.3 8.9 0.3 1.9 0.6 1.8 3.6 -1.3 4.7 -4.9 7.5 -10.7 6.7 -14 -0.3 -1.4 -2.2 -5 -4.1 -7.8 -1.9 -2.9 -3.4 -5.6 -3.4 -6 0 -0.5 1.4 -1.6 3 -2.5 3.8 -2.2 4 -4.3 0.3 -3.3 -4.4 1 -8.7 3.9 -10 6.6 -1.7 3.6 -6.3 24.2 -7 31.5 -0.5 5.7 -0.4 6.4 2 8.8 2 2 3.6 2.6 7.1 2.6 2.5 0 4.8 -0.4 5.1 -1z m236.5 -36.2 c-3 -1.1 -4.2 -0.1 -2.9 2.3 1 2 1.1 2 3 0.3 2 -1.8 2 -1.8 -0.1 -2.6z"/>
  <path d="M242.1 267.7 c-1.3 -5.5 -1.4 -9.7 -0.1 -11.7 0.7 -1.1 1.2 -1.2 2.1 -0.3 1.4 1.4 1.6 12.3 0.2 14.7 -0.8 1.5 -1.2 1.1 -2.2 -2.7z"/>
  <path d="M192 264.7 c0 -0.7 3 -3.4 6.8 -6 3.7 -2.5 9.2 -7.1 12.2 -10.1 5 -5.2 8 -6.9 8 -4.7 0 2.6 -2.6 7.1 -6.3 10.9 -6.1 6.4 -20.7 13.3 -20.7 9.9z"/>
  <path d="M197 247.1 c0 -1.7 7.4 -7.1 11.3 -8.3 4.8 -1.4 5.7 -0.5 2.6 2.8 -3.9 4.3 -13.9 8.2 -13.9 5.5z"/>
  <path d="M284.7 247.3 c-3.1 -0.5 -14.9 -8.1 -15.5 -10 -0.8 -2.5 4.4 -1.2 13.8 3.5 12.4 6.2 13 8.2 1.7 6.5z"/>
  <path d="M236 226.1 c0 -1.5 4.2 -4.1 6.5 -4.1 2.4 0 4.5 1.8 4.5 3.7 0 0.9 -1.7 1.3 -5.5 1.3 -3 0 -5.5 -0.4 -5.5 -0.9z"/>
  <path d="M327 376.1 c-0.5 -1.1 -1 -3.2 -1 -4.8 l0.1 -2.8 1.9 2.4 c2.1 2.4 2.7 7.1 1 7.1 -0.5 0 -1.4 -0.9 -2 -1.9z"/>
  <path d="M180 368.6 c0 -0.8 1.2 -1.7 2.7 -2.1 1.5 -0.3 7.9 -3 14.3 -6 14.8 -6.8 22.4 -9.1 35.2 -10.5 11.7 -1.3 22.7 -0.7 37.2 2.1 10.8 2 27.5 7 31.6 9.4 l2.5 1.4 -3.3 0.1 c-1.9 0 -9.1 -1.3 -16 -2.9 -14.8 -3.4 -31.9 -6.1 -38.8 -6.1 -12.3 0 -33.2 5 -50.4 12 -10.1 4.2 -15 5 -15 2.6z"/>
  <path d="M335.5 358.5 c-1.4 -1.3 -2.5 -3.2 -2.5 -4.2 0 -1.3 0.8 -0.9 3.5 1.7 1.9 1.9 3.5 3.8 3.5 4.2 0 1.5 -2.1 0.8 -4.5 -1.7z"/>
  <path d="M142 346.8 c0 -2.4 5.9 -10.8 7.5 -10.8 2.4 0 1.8 2.5 -1.7 7.1 -3.5 4.5 -5.8 6 -5.8 3.7z"/>
  <path d="M326.9 332.8 c-3.5 -2.4 -6.5 -4.9 -6.7 -5.5 -0.5 -1.8 3.2 -1.6 6.7 0.2 3 1.5 8.1 7 8.1 8.6 0 1.7 -1.8 0.9 -8.1 -3.3z"/>
  <path d="M170 317.8 c0 -1.3 7.6 -8.8 9 -8.8 1.9 0 0.9 3 -2.1 6.5 -3 3.4 -6.9 4.7 -6.9 2.3z"/>
  <path d="M333.8 312.3 c-4.1 -2.8 -4.8 -4.3 -2 -4.3 2.2 0 9.4 4.2 10 5.8 0.7 2.1 -4.1 1.2 -8 -1.5z"/>
  <path d="M148 312.5 c0 -0.9 2.2 -4 5 -6.8 5.8 -6.1 6.7 -4.5 1.8 2.9 -3.4 5 -6.8 7 -6.8 3.9z"/>
  <path d="M231 304 c-9.2 -1.6 -15.8 -5.7 -18 -11.1 -1.3 -3 -1.2 -3.3 1.8 -6 7.5 -6.8 21.4 -0.8 24.7 10.6 1.4 4.6 1.4 5.1 -0.2 6.2 -1.8 1.4 -1.8 1.4 -8.3 0.3z"/>
  <path d="M250 297.1 c0 -5.8 0.4 -7.4 2.3 -9.6 4.2 -5 15.9 -4.2 19.4 1.2 1.7 2.6 1.7 2.6 -2.6 6.4 -4.9 4.4 -13.4 8.9 -16.8 8.9 -2.2 0 -2.3 -0.4 -2.3 -6.9z"/>
  <path d="M138 298.9 c0 -1.3 5.3 -9.1 7.4 -10.9 0.9 -0.7 1.9 -1 2.2 -0.7 1.3 1.3 -0.8 5.8 -4.1 9.2 -3.6 3.5 -5.5 4.4 -5.5 2.4z"/>
  <path d="M312.5 294 c-2.4 -2.5 -2.6 -3 -1.1 -3 2.2 0 8.6 3.8 8.6 5.1 0 2 -4.8 0.7 -7.5 -2.1z"/>
  <path d="M352.5 294.5 c-0.5 -0.2 -3.5 -1.1 -6.6 -1.9 -5.8 -1.6 -11.3 -5.1 -10.4 -6.6 1.2 -1.9 19.5 5.3 19.5 7.6 0 1.4 -0.6 1.6 -2.5 0.9z"/>
  <path d="M123 275.5 c0 -2.4 12.2 -9.7 13.7 -8.1 1.4 1.3 -6.4 7.4 -11.4 9 -1.7 0.6 -2.3 0.3 -2.3 -0.9z"/>
  <path d="M344.8 262.4 c-3 -1.6 -3.8 -4.4 -1.2 -4.4 1.9 0 7.4 3.8 7.4 5.1 0 1.3 -3.1 1 -6.2 -0.7z"/>
  <path d="M121 252.3 c0 -2.2 7.6 -9.3 10.1 -9.3 3.4 0 1.8 3.1 -3.6 7.2 -5.6 4.2 -6.5 4.5 -6.5 2.1z"/>
  <path d="M150.5 222.3 c1.4 -5.9 7.8 -13.6 15.5 -18.5 5 -3.2 17.6 -7.6 18.7 -6.4 1.5 1.5 -1.7 4.2 -11.5 9.6 -10.5 5.8 -14.6 9 -18.4 14.7 -2.9 4.1 -5.3 4.5 -4.3 0.6z"/>
  <path d="M133 221.2 c0 -2.3 3 -5.2 5.3 -5.2 2.4 0 2.1 1.3 -0.9 4.4 -3.1 3.1 -4.4 3.3 -4.4 0.8z"/>
  <path d="M228 208.9 c0 -0.6 0.5 -2 1.2 -3.2 0.6 -1.2 1.9 -5.3 2.8 -9.1 0.8 -3.8 2.1 -7.1 2.7 -7.3 1.6 -0.6 2.6 5.1 1.8 10.5 -1 6.8 -3 10.2 -6 10.2 -1.4 0 -2.5 -0.5 -2.5 -1.1z"/>
  <path d="M241.4 202 c0.7 -10.1 1.5 -13.2 3 -12.7 1.3 0.4 2 8.7 1.1 13.4 -0.3 1.7 -1.5 4.2 -2.6 5.5 l-2 2.3 0.5 -8.5z"/>
  <path d="M254.5 206.4 c-2.6 -2.8 -4.1 -8.3 -3.1 -11 0.9 -2.3 2.5 -0.7 5.2 5 3.8 8.2 2.8 11.3 -2.1 6z"/>
  <path d="M214.7 196.6 c-8.7 -3.6 -11.4 -6.6 -5.9 -6.6 4.5 0 10 1.9 13.2 4.6 5.8 4.9 2.3 5.9 -7.3 2z"/>
  <path d="M266.5 195.2 c2 -2.1 12.2 -5.4 18.5 -5.9 8.8 -0.7 19 2.1 16.5 4.6 -1.4 1.4 -36.3 2.7 -35 1.3z"/>
  <path d="M324.2 190.9 c-4.4 -3.2 -5.3 -4.9 -2.6 -4.9 2 0 5.4 1.8 8.2 4.3 5 4.6 0.5 5.1 -5.6 0.6z"/>
  <path d="M163 177.6 c0 -0.7 15 -5.4 24 -7.6 14.6 -3.4 25.5 -3.6 39.9 -0.6 6.8 1.4 13.4 2.6 14.6 2.6 1.3 0 7.4 -1.6 13.7 -3.6 20.6 -6.4 33.7 -6.5 49.8 -0.3 11.3 4.3 18.6 9.9 13 9.9 -1.1 0 -6.9 -1.2 -12.8 -2.6 -15.4 -3.9 -29.8 -3.9 -44.2 -0.1 -14 3.6 -23.4 3.6 -36.6 0 -14.2 -3.9 -31.3 -3.9 -46.7 0 -10.2 2.5 -14.7 3.2 -14.7 2.3z"/>
  <path d="M226.5 160.2 c-7 -2.8 -21.3 -10.1 -24.9 -12.8 -3.9 -2.8 -0.4 -2.6 7.1 0.6 18.6 7.8 20.2 8.2 28.8 7.7 6.7 -0.4 10 -1.2 20.5 -5.6 11.9 -4.9 26.1 -8.3 27.8 -6.6 1.2 1.1 -3.7 4.4 -14.9 10.1 -20.7 10.4 -31 11.9 -44.4 6.6z"/>
  <path d="M140 159.4 c0 -1.4 5.4 -4.4 8 -4.4 2.1 0 0.9 2.1 -2.2 4 -4 2.4 -5.8 2.5 -5.8 0.4z"/>
  <path d="M326.3 153.3 c-1.1 -0.4 -1.9 -3.3 -0.9 -3.3 1.5 0 6.6 2.4 6.6 3.1 0 0.9 -3.6 1.1 -5.7 0.2z"/>
  <path d="M142 139.2 c0 -1.9 13.3 -7.7 15.2 -6.6 1.4 0.9 -1.2 3.5 -5.7 5.5 -4.1 1.9 -9.5 2.5 -9.5 1.1z"/>
  <path d="M177 128.2 c0 -1 15.6 -14.2 16.9 -14.2 3.8 0 -1.5 9.1 -7.3 12.5 -4.1 2.4 -9.6 3.4 -9.6 1.7z"/>
  <path d="M118 125.6 c0 -2.2 4.2 -7.7 9.3 -11.9 8.3 -7.1 7.5 -2 -1.3 7.6 -5 5.5 -8 7.1 -8 4.3z"/>
  <path d="M252.9 125.1 c-8.8 -2.7 -9.2 -5.6 -0.6 -4.8 8.4 0.9 13.7 2.5 13.7 4.2 0 1.1 -1.3 1.5 -5.2 1.4 -2.9 0 -6.5 -0.4 -7.9 -0.8z"/>
  <path d="M291 120.9 c-3 -1.1 -8.3 -2.3 -11.7 -2.6 -11.6 -1.1 -11.3 -3.8 0.5 -3.7 8.6 0 16.2 2.7 18.1 6.3 1.5 2.6 0.5 2.6 -6.9 0z"/>
  <path d="M145.9 116.6 c2.4 -2.9 6.8 -4.6 11.3 -4.5 l4.3 0.1 -5 2.3 c-2.7 1.3 -6.6 2.6 -8.5 3 -3.2 0.7 -3.3 0.6 -2.1 -0.9z"/>
  <path d="M291.2 105.4 c-2.9 -1.4 -5.2 -3 -5.2 -3.6 0 -2.5 13.9 2.1 14.8 5 0.6 2 -4 1.4 -9.6 -1.4z"/>
  <path d="M253.8 94.3 c-4.4 -1.8 -4.9 -3.3 -1.3 -3.3 3 0 8.5 2.6 8.5 4 0 1.4 -2.9 1.1 -7.2 -0.7z"/>
  <path d="M154.3 92.5 c2.2 -2 3.9 -2.5 8.1 -2.5 5.4 0 11.6 1.6 11.6 3 0 0.8 -10.1 2 -17.4 2 l-5.1 -0.1 2.8 -2.4z"/>
  <path d="M192 86.1 c0 -1.1 8.9 -9.1 10.1 -9.1 2 0 0.7 3.4 -2.5 6.6 -3.1 3.1 -7.6 4.6 -7.6 2.5z"/>
  <path d="M154.2 76.8 c0.9 -2.8 8.9 -7.8 12.4 -7.8 1.9 0 3.4 0.4 3.4 1 0 1 -13.1 8 -15.1 8 -0.6 0 -0.9 -0.6 -0.7 -1.2z"/>
  <path d="M268.3 68 c-4 -1.6 -2.5 -3 3.2 -3 5 0 12.5 2.1 12.5 3.4 0 1 -13.3 0.5 -15.7 -0.4z"/>
  <path d="M286.6 59.9 c-1.4 -1.1 -2.6 -2.5 -2.6 -3 0 -0.5 2.9 -0.9 6.5 -0.9 6.8 0 8.7 1.4 3.5 2.5 -2.5 0.6 -2.9 0.9 -1.9 2.1 1.9 2.3 -2.4 1.8 -5.5 -0.7z"/>
  <path d="M163.2 58.8 c0.7 -2 4.9 -3.8 9.1 -3.8 4.3 0 4.7 2 0.6 3 -6.8 1.9 -10.1 2.1 -9.7 0.8z"/>
  <path d="M258.7 51.4 c-5.5 -1.2 -10.1 -2.5 -10.5 -2.8 -0.3 -0.3 2.9 -0.6 7.2 -0.6 7.6 0 17.6 2.9 17.6 5.1 0 1.3 -3.3 0.9 -14.3 -1.7z"/>
  <path d="M184 37.5 c0 -1.3 8.8 -4.5 12.3 -4.5 4.1 0 4.9 1.6 1.5 2.9 -2.9 1 -13.8 2.3 -13.8 1.6z"/>
  <path d="M236.5 27.3 c-4.9 -1.1 -8.5 -2.5 -8.5 -3.4 0 -1.3 1.9 -1.1 7.8 0.6 6.8 2 7.3 4.3 0.7 2.8z"/>
  <path d="M212.5 23 c-1.5 -0.6 -0.7 -0.9 3 -0.9 3.7 0 4.5 0.3 3 0.9 -1.1 0.5 -2.4 0.9 -3 0.9 -0.5 0 -1.9 -0.4 -3 -0.9z"/>
 </g>
</svg>