<?xml version="1.0" encoding="utf-8"?>
<!DOCTYPE svg PUBLIC "-//W3C//DTD SVG 20010904//EN" "http://www.w3.org/TR/2001/REC-SVG-20010904/DTD/svg10.dtd">
<svg version="1.0" xmlns="http://www.w3.org/2000/svg" width="500px" height="500px" viewBox="0 0 500 500" preserveAspectRatio="xMidYMid meet">
 <g fill="#000000">
  <path d="M332.7 326 c-5.6 -1.4 -9 -3.4 -12.9 -7.8 -3.5 -3.9 -8.1 -12.4 -9.3 -17.5 -0.4 -1.5 -1.1 -2.7 -1.5 -2.7 -0.4 0 -0.6 -6 -0.5 -13.2 0.2 -9.8 0.9 -15.4 2.5 -21.3 1.2 -4.4 2.3 -8.7 2.5 -9.5 0.2 -0.8 2 -4.9 4.2 -9 4.9 -9.6 8.2 -12 16.6 -12 l6 0 -0.7 -7.5 c-2 -22.5 -11.5 -41.3 -25.3 -50.4 -6.2 -4.1 -14.9 -7.3 -19.8 -7.2 -2.2 0 -8.9 -0.6 -15 -1.4 -41.4 -5.5 -56.6 -6.1 -65.8 -2.6 -8.9 3.5 -28.7 17.7 -28.7 20.6 0 0.6 -3.2 4.4 -7.1 8.5 -15.3 16.1 -30 36 -36.5 49.1 -4.1 8.3 -7 20.3 -5.6 23.4 1.3 2.9 -0.3 6.5 -3 6.5 -7 0 -25.9 -30.4 -25.8 -41.7 0 -1.5 1.4 -6.6 3.1 -11.3 1.6 -4.7 3.1 -9.5 3.2 -10.7 0 -1.3 0.4 -2.3 0.8 -2.3 0.4 0 2 -2.1 3.5 -4.7 4.1 -7.1 10.9 -15.5 14.7 -18 5.3 -3.7 13.3 -4.8 24 -3.5 5.1 0.7 10.1 1.4 11.2 1.7 1.5 0.3 3 -0.9 6.1 -4.8 5.3 -6.8 13.9 -13.7 23.4 -18.6 7.6 -4 23.1 -9.1 27.6 -9.1 1.3 0 2.4 -0.3 2.4 -0.7 0 -0.5 2.4 -0.9 5.3 -1 2.8 -0.2 9.1 -0.5 13.8 -0.9 5.6 -0.3 12.8 0 20.2 1 6.3 0.9 12.3 1.3 13.2 0.9 1.5 -0.5 1.7 -0.3 1.2 1.1 -0.6 1.4 -0.3 1.7 0.9 1.2 2.1 -0.8 12.5 2.1 13.9 3.8 0.6 0.6 3.9 2.2 7.5 3.5 22.2 8 41 22.3 47.8 36.5 2.5 5.3 4 11.1 6.6 25.1 2.9 16.3 5.4 23.8 7.2 22.6 1.3 -0.9 9.4 6.1 11.8 10.1 7.2 12.3 7.4 28.4 0.5 49.3 -4.4 13.4 -7.6 18.5 -14 22 -4.9 2.7 -6.4 3 -15.9 3.2 -5.8 0.1 -12.2 -0.2 -14.3 -0.7z m14.9 -2.1 c8.8 -1.6 14.7 -5.2 17.7 -10.8 6.8 -12.6 11.7 -35.4 10 -45.8 -2.3 -13.3 -7.7 -19.6 -22.6 -26.2 l-9.2 -4.1 -4.3 4.7 c-8.4 9 -11.2 17.8 -11.2 34.6 0.1 16.9 2.7 31.2 8 42.5 1.6 3.4 3.5 6.2 4.3 6.2 0.7 0 4 -0.5 7.3 -1.1z m-16.2 -5.8 c-4 -9.7 -5.5 -18.8 -6.1 -36.3 -0.8 -23.3 1 -31.1 9.3 -41.5 2.9 -3.5 3.2 -4.2 1.7 -4.5 -3.1 -0.7 -8.4 0.9 -10.9 3.3 -3 2.8 -5.6 9.7 -8.6 22.9 -3.1 14 -3.3 36.6 -0.4 44.9 2.2 6.5 7.6 12.7 13.1 15.2 2.2 1 4.1 1.9 4.1 1.9 0.1 0 -0.9 -2.6 -2.2 -5.9z m-197.8 -56.4 c0.1 -3.9 0.9 -10.1 1.8 -13.7 3.9 -14.5 15.6 -34.7 29.5 -50.5 4.1 -4.8 6.6 -8.4 6.1 -8.9 -0.6 -0.6 -1.4 -0.5 -2.2 0.1 -20.4 15.6 -26.4 22 -32.4 34.8 -3.9 8.3 -7.7 21 -9.4 31.8 l-1.3 7.8 2.8 2.9 c1.6 1.7 3.4 3 3.9 3 0.7 0 1.1 -2.9 1.2 -7.3z m-9.1 -12.1 c4.9 -26.2 13.4 -41.9 30 -55 4.7 -3.8 8.3 -7.2 8 -7.6 -1.4 -2.3 -21 -2.8 -25.2 -0.6 -3.1 1.6 -9.8 8.4 -13.1 13.2 -3.1 4.6 -9.1 16.9 -11.3 23.1 -2.4 7.1 -2.4 10.5 0.1 17.8 1.7 5.1 9 18.9 9.6 18.2 0.1 -0.1 0.9 -4.2 1.9 -9.1z m229.8 -29.3 c-1.9 -9.5 -4.6 -19.2 -6 -22.3 -3.5 -7.5 -17.6 -21.3 -26.7 -26.3 -7 -3.8 -23.4 -10.7 -25.5 -10.7 -2.9 0 -0.6 1.9 3.7 3 11.9 3 23.9 11.8 31.1 22.9 6.2 9.6 11.1 27.8 11.1 41.1 l0 3.8 7.3 2.5 c3.9 1.3 7.5 2.5 7.8 2.6 0.4 0 -0.9 -7.4 -2.8 -16.6z m-168.2 -45 c14.9 -12.8 26.2 -18.2 39.7 -19 5.9 -0.4 8.2 -1 8.2 -1.9 0 -3.2 -22 2.4 -34 8.7 -8.1 4.2 -20.2 13.5 -22 16.9 -0.6 1.1 -0.8 2 -0.5 2 0.4 0 4.2 -3 8.6 -6.7z"/>
  <path d="M348.9 309.5 c-4.3 -2.3 -6.3 -7.8 -6.7 -18.4 -1.2 -28.7 10.3 -40 25.9 -25.4 4.6 4.3 4.9 4.9 4.9 9.7 0 6.1 -5.2 26 -7.4 28.5 -0.9 1 -1.6 2.5 -1.6 3.4 0 3.6 -9.9 5.1 -15.1 2.2z m10.1 -3.2 c-5.9 -0.9 -7.1 -1.5 -8.6 -4.6 -1 -1.7 -2 -6.8 -2.4 -11.2 l-0.7 -8 -0.2 6.6 c-0.2 11.9 3.3 18 10.3 17.8 2.5 -0.1 3.1 -0.3 1.6 -0.6z m2.4 -8.5 c0.7 -1.3 2.4 -6.3 3.7 -11.2 l2.3 -8.9 -3.7 -3.3 c-2 -1.9 -4.2 -3.4 -4.7 -3.4 -1.7 0 -4.9 8.1 -5.6 14.2 -0.5 4.4 -0.2 6.4 1.4 10.1 2.3 5.2 4.4 5.9 6.6 2.5z m-11.4 -23.2 c0 -2.6 -0.6 -1.8 -1.4 1.9 -0.5 2.2 -0.4 2.6 0.4 1.5 0.5 -0.8 1 -2.4 1 -3.4z"/>
 </g>
 <g fill="#ffffff">
  <path d="M354.8 303 c-3.2 -1.9 -5.1 -9.4 -4.5 -17.9 0.9 -14.3 5.5 -20.3 12.5 -16.7 3.2 1.7 8.2 7.1 8.2 8.9 0 0.7 -1.3 6.2 -3 12.2 -2 7.6 -3.6 11.5 -5.1 12.8 -2.3 1.9 -5.5 2.2 -8.1 0.7z"/>
 </g>
</svg>