<?xml version="1.0" encoding="utf-8"?>
<!DOCTYPE svg PUBLIC "-//W3C//DTD SVG 20010904//EN" "http://www.w3.org/TR/2001/REC-SVG-20010904/DTD/svg10.dtd">
<svg version="1.0" xmlns="http://www.w3.org/2000/svg" width="500px" height="500px" viewBox="0 0 500 500" preserveAspectRatio="xMidYMid meet">
 <g fill="#000000">
  <path d="M343.9 400.2 c-8.8 -5.6 -25.1 -26.6 -31.5 -40.6 -2.6 -5.6 -2.7 -6.4 -2.1 -17 0.4 -6.1 1.5 -18.7 2.6 -28.1 1.1 -9.3 2.5 -22.6 3.1 -29.4 1.2 -14.8 2.4 -20.4 9.1 -42.3 2.9 -9.2 4.9 -17.4 4.6 -18.1 -0.5 -1.3 -2.2 -1.1 -11.4 0.9 -36.7 8 -70.4 11.2 -88.3 8.3 -20.5 -3.3 -48.7 -18 -75.5 -39.4 -4.9 -3.9 -9.5 -7.8 -10.2 -8.6 -1 -1.2 0.6 -3.5 8.9 -12.9 23.1 -26.4 30 -33.2 36.3 -36.1 12.2 -5.7 33.5 -5.8 65.4 -0.3 17.6 3 34.4 8.4 50.6 16.4 21.5 10.5 29 17.7 38.6 37.4 4.3 8.7 5.4 10.1 8.7 11.6 6.4 2.9 8 11.5 3.5 19.1 -1.5 2.6 -1.5 5.2 0.6 37.1 1.2 18.9 2.6 37.5 3.1 41.3 2.7 19.2 12.6 49.6 21.5 66.4 3.6 6.8 6.4 12.5 6.2 12.7 -0.2 0.3 -2.6 -1 -5.3 -2.8 -14.7 -9.9 -28.4 -38.5 -35.8 -74.8 -2.7 -13.7 -5.6 -34.1 -5.6 -40.4 0 -2.2 -0.4 -3.6 -0.8 -3.1 -1.6 1.9 -3.2 9.3 -3.2 15.1 0 10.9 3 46.6 7.5 88.3 2.5 22.8 4.3 41.6 4.2 41.8 -0.2 0.1 -2.3 -1 -4.8 -2.5z m0.6 -7.2 c0.3 -0.5 0.1 -1 -0.4 -1 -0.7 0 -1 -1.7 -0.8 -4 0.2 -2.2 -0.1 -4 -0.6 -4 -0.5 0 -0.7 -2.4 -0.5 -5.4 0.1 -3 0 -5.2 -0.5 -4.9 -0.4 0.2 -0.6 -1.8 -0.4 -4.6 0.1 -2.8 -0.1 -5.1 -0.5 -5.1 -0.5 0 -0.8 -1.2 -0.8 -2.7 0.1 -2.6 -0.2 -5.8 -1.4 -18.3 -2.6 -25.5 -4.7 -51.1 -5.2 -63 -0.6 -14.3 -0.6 -14.6 2.5 -24.1 2.6 -8.1 3.1 -11.2 3.1 -19.3 0 -9.5 -0.1 -9.7 -2.2 -9.4 -1.9 0.2 -2.8 2 -5.6 10.8 -6.5 20.2 -10 34.5 -10.6 43.5 l-0.6 9 2.4 -11 c4.2 -19.6 12.3 -49.4 12.5 -46 0.1 0.6 -2.2 13.2 -4.9 28 -7.4 39.5 -8.2 53.9 -4.4 78 1.4 9.5 5.6 24.9 8 30 l1.5 3 -2 -2.5 c-1.1 -1.4 -3.4 -6.1 -5.1 -10.4 -6.2 -15.5 -8.9 -30.3 -9.1 -48.9 l-0.1 -11.2 -1.8 14.5 c-1 8 -2.2 19.2 -2.5 25 -0.4 5.8 -0.9 10.7 -1.1 10.9 -0.2 0.2 0.3 1.9 1.1 3.7 0.8 1.9 1.1 3.4 0.8 3.4 -0.3 0 0.1 0.8 1 1.8 1 1 1.4 2.2 1 2.5 -0.3 0.4 -0.1 0.7 0.5 0.7 0.7 0 1.2 0.4 1.2 0.9 0 1.5 7.6 12.6 14.6 21.2 3.5 4.3 6 7.9 5.6 8 -0.7 0 2.8 1.7 4 1.8 0.4 0.1 1 -0.3 1.3 -0.9z m27.7 -37.3 c-1.2 -1.2 -2.3 -3.4 -2.4 -4.7 -0.2 -1.4 -0.6 -2.7 -1 -3 -0.4 -0.3 -0.9 -1.5 -1.1 -2.5 -0.2 -1.1 -0.7 -2.7 -1 -3.5 -1.3 -3.5 -3.8 -12.2 -6.6 -23.2 -3.4 -13.4 -5.4 -29.3 -7.6 -63.3 -2.1 -32 -1.8 -30.3 -5.7 -29.7 l-3.1 0.5 0.6 18.6 c1.1 30.9 7.4 68.9 13.8 83.7 1 2.3 2.1 5.5 2.5 7 0.4 1.6 1.4 3.9 2.2 5.2 0.8 1.2 1.1 2.2 0.8 2.2 -0.4 0 0.1 1.1 1 2.5 0.9 1.4 1.4 2.5 1 2.5 -0.3 0 0.3 0.9 1.4 2 1.1 1.1 2 2.6 2 3.4 0 0.8 1 2.2 2.2 3 3.2 2.2 3.5 2 1 -0.7z m-52.5 -62.4 c-0.3 -1 -0.5 -0.2 -0.5 1.7 0 1.9 0.2 2.7 0.5 1.8 0.2 -1 0.2 -2.6 0 -3.5z m-49 -63.8 c6.5 -0.8 14.5 -2 17.8 -2.5 3.3 -0.6 7.6 -1.3 9.5 -1.6 1.9 -0.3 4.4 -0.7 5.5 -1 3.4 -0.7 7.9 -1.6 10 -1.9 1.1 -0.1 2.7 -0.5 3.6 -0.9 0.9 -0.4 2 -0.6 2.5 -0.5 0.5 0.1 2.4 -0.4 4.2 -1.1 2.7 -1 3.3 -1.7 2.8 -3.4 -3.4 -11.7 -2.9 -14.8 2.7 -17.1 4.8 -1.9 13.7 -2.9 13.7 -1.5 0 0.6 0.5 0.8 1.1 0.5 0.6 -0.5 0.4 -1.2 -0.7 -2 -1 -0.7 -1.5 -1.9 -1.1 -2.8 0.3 -0.9 -0.1 -1.8 -1 -2.1 -0.8 -0.4 -1.3 -1.3 -0.9 -2.1 0.3 -0.8 0.1 -1.5 -0.4 -1.5 -0.6 0 -1 -0.4 -1 -1 0 -0.5 -1.6 -3.2 -3.6 -6 -2 -2.7 -3.3 -5 -3 -5 0.4 0 -2.1 -2.6 -5.4 -5.9 -9.7 -9.3 -31.6 -20.3 -52 -26 -18.3 -5.1 -54.3 -8.8 -69.2 -7.1 -16.3 1.9 -18.8 3.8 -47.7 37 -8.7 10 -9 10.6 -7.2 12 32.2 25.9 54.6 38.7 76.6 43.5 8.2 1.8 28.9 1.8 43.2 0z m77 -8.6 c4.7 -0.9 5.3 -1.3 6.3 -4.5 0.9 -2.5 0.9 -4.3 0 -6.8 -1.1 -3.5 -2.6 -4.6 -6.1 -4.6 -1 0 -1.9 -0.4 -1.9 -1 0 -0.5 -0.9 -1 -1.9 -1 -1.1 0 -2.2 -0.4 -2.5 -0.9 -0.6 -0.9 -1.4 -0.8 -9 1.1 l-3.9 0.9 0.6 5.7 c0.3 3.1 1.1 7.4 1.7 9.5 l1.1 3.9 5.2 -0.7 c2.9 -0.3 7.5 -1.1 10.4 -1.6z"/>
  <path d="M246.9 226.5 c-15.8 -3.2 -35.6 -10.6 -56.1 -21.2 -7.1 -3.6 -12.7 -6.7 -12.5 -6.9 0.2 -0.2 7 2.4 15.2 5.7 30.3 12.3 51 18.4 66.2 19.5 10.4 0.9 27.5 -1 42.3 -4.6 6.3 -1.6 11.6 -2.7 11.8 -2.5 0.5 0.5 -10.2 4.3 -19.4 7 -15.6 4.5 -34 5.7 -47.5 3z"/>
  <path d="M238 211.5 c-30.9 -5.4 -59 -14.5 -70.2 -22.8 -4.3 -3.2 -3.3 -3.9 1.4 -1.1 5.9 3.3 17.7 7 52.8 16.4 16.6 4.5 31.1 8.5 32.3 9 2.1 0.8 2.1 0.9 -0.3 0.9 -1.4 0 -8.6 -1.1 -16 -2.4z"/>
  <path d="M302.7 189 c-5.3 -5.5 -11.9 -13.4 -14.7 -17.5 -6 -8.8 -12.2 -13.8 -27.7 -22.1 -5.7 -3.1 -10.2 -5.8 -10 -6.1 0.8 -0.7 18.6 6.5 24.5 9.9 7.5 4.3 11.7 8.2 15.9 14.6 1.9 3.1 7.4 10.7 12.2 17.1 13.4 17.8 13.4 18.3 -0.2 4.1z"/>
  <path d="M321.1 189.5 c-6.2 -4.8 -19.5 -18.4 -18.7 -19.3 1.1 -1 10.6 6.1 16.8 12.5 5.7 6 9.7 11.3 8.4 11.3 -0.2 0 -3.1 -2 -6.5 -4.5z"/>
  <path d="M186 153.3 c8.7 -4 26.9 -10.3 29.6 -10.2 1.2 0 0.8 0.4 -1.1 1.1 -1.6 0.6 -10.1 3.7 -18.8 6.9 -8.7 3.3 -16.2 5.9 -16.5 5.8 -0.4 0 2.7 -1.6 6.8 -3.6z"/>
  <path d="M332 211.6 c0 -0.7 0.8 -2 1.8 -2.9 2.3 -2.1 8.2 -3.4 8.2 -1.8 0 0.6 -1.1 1.1 -2.5 1.1 -1.4 0 -3.7 1.1 -5 2.5 -1.5 1.4 -2.5 1.9 -2.5 1.1z"/>
 </g>
</svg>