<?xml version="1.0" encoding="UTF-8" standalone="no"?>
<!DOCTYPE svg PUBLIC "-//W3C//DTD SVG 1.1//EN" "http://www.w3.org/Graphics/SVG/1.1/DTD/svg11.dtd">
<svg width="100%" height="100%" viewBox="0 0 250 250" version="1.1" xmlns="http://www.w3.org/2000/svg" xmlns:xlink="http://www.w3.org/1999/xlink" xml:space="preserve" xmlns:serif="http://www.serif.com/" style="fill-rule:evenodd;clip-rule:evenodd;stroke-linejoin:round;stroke-miterlimit:2;">
    <g transform="matrix(1,0,0,1,111.186,152.457)">
        <path d="M0,-8.636C0,-8.636 -1.936,-6.586 -4.506,-3.586C-7.196,-0.426 -10.046,3.244 -10.396,5.053C-10.396,5.053 -9.866,-0.456 -8.886,-5.437C-8.306,-8.437 -6.847,-12.408 -5.947,-13.689L0,-8.636Z" style="fill:white;fill-rule:nonzero;"/>
    </g>
    <g transform="matrix(0.389269,-0.921124,-0.921124,-0.389269,101.755,148.231)">
        <path d="M1.328,-4.786C-2.63,-3.538 -7.12,-2.342 -8.923,-2.724C-8.923,-2.724 -3.641,-1.067 1.328,-0.031L0.145,-1.986L1.328,-4.786Z" style="fill:rgb(249,65,68);fill-rule:nonzero;"/>
    </g>
    <g transform="matrix(1,0,0,1,147.87,144.998)">
        <path d="M0,26.262C0.45,25.172 -0.99,21.182 -2.88,16.762C-5.74,10.082 -9.873,1.933 -9.873,1.933L0.19,-2.03C1.27,3.071 1.62,7.932 1.71,11.733C1.99,22.932 -0.84,28.292 0,26.262" style="fill:white;fill-rule:nonzero;"/>
    </g>
    <g transform="matrix(0.994525,-0.104501,-0.104501,-0.994525,148.521,171.179)">
        <path d="M-0.656,-0.012C-0.094,1.025 -1.109,5.143 -2.527,9.737L-0.656,7.93C-0.656,7.93 1.204,10.893 2.563,14.258C1.672,3.092 -1.703,-1.943 -0.656,-0.012" style="fill:rgb(249,65,68);fill-rule:nonzero;"/>
    </g>
    <g transform="matrix(1,0,0,1,111.086,151.11)">
        <path d="M0,-7.283L-3.443,-9.532C-4.512,-10.235 -5.509,-10.905 -6.455,-11.626L-5.078,-11.801C-5.388,-11.246 -5.694,-10.494 -5.968,-9.78L-6.753,-7.567C-7.261,-6.065 -7.721,-4.605 -8.058,-3.038C-8.399,-1.475 -8.804,0.086 -9.185,1.659C-9.565,3.232 -9.854,4.826 -9.986,6.431L-10.602,6.342C-10.428,5.561 -10.113,4.89 -9.799,4.215C-9.48,3.545 -9.146,2.885 -8.788,2.24C-8.076,0.947 -7.243,-0.261 -6.3,-1.367C-5.827,-1.903 -5.338,-2.492 -4.86,-2.97C-4.387,-3.433 -3.917,-3.898 -3.398,-4.353C-2.38,-5.273 -1.26,-6.207 0,-7.283M0.2,-7.295C-0.458,-6.221 -1.256,-5.004 -2.157,-3.774C-2.598,-3.154 -3.087,-2.545 -3.573,-1.933L-4.919,-0.232C-5.806,0.887 -6.755,1.946 -7.715,3C-8.636,4.053 -9.641,5.184 -9.991,6.46L-10.605,6.371C-10.413,4.758 -10.309,3.144 -10.25,1.512C-10.187,-0.117 -10.093,-1.751 -9.851,-3.369C-9.635,-4.988 -9.287,-6.667 -8.778,-8.234C-8.525,-9.025 -8.242,-9.808 -7.891,-10.572C-7.541,-11.346 -7.203,-12.089 -6.615,-12.882L-5.976,-13.743L-5.238,-13.057C-4.202,-12.093 -3.216,-11.079 -2.304,-10.097C-1.39,-9.114 -0.562,-8.16 0.2,-7.295" style="fill-rule:nonzero;"/>
    </g>
    <g transform="matrix(1,0,0,1,147.789,141.973)">
        <path d="M0,30.99C-0.163,31.036 -0.31,31.115 -0.533,31.076C-0.659,31.055 -0.75,30.914 -0.758,30.812C-0.77,30.712 -0.763,30.62 -0.748,30.536C-0.69,30.197 -0.581,29.894 -0.483,29.585C-0.292,28.966 -0.109,28.349 0.058,27.729C0.37,26.482 0.58,25.216 0.708,23.948C0.956,21.408 0.955,18.883 0.903,16.363C0.812,13.828 0.641,11.275 0.433,8.741C0.217,6.204 -0.151,3.682 -0.628,1.18L0.47,1.777C-3.381,3.067 -7.249,4.311 -11.149,5.465L-11.266,4.883L-11.261,4.884C-10.816,4.855 -10.479,5.045 -10.194,5.22C-9.913,5.41 -9.665,5.624 -9.438,5.846C-8.978,6.292 -8.594,6.78 -8.216,7.27C-7.484,8.265 -6.834,9.301 -6.241,10.362C-5.042,12.479 -4.039,14.684 -3.112,16.915C-2.188,19.149 -1.523,21.484 -0.947,23.835C-0.667,25.012 -0.399,26.191 -0.153,27.373C-0.021,27.962 0.084,28.556 0.18,29.154C0.229,29.453 0.272,29.754 0.286,30.06C0.292,30.215 0.291,30.37 0.272,30.529C0.242,30.678 0.222,30.886 0,30.99M-0.065,30.802C0.08,30.718 0.084,30.34 0.062,30.073C0.042,29.782 -0.007,29.489 -0.064,29.198C-0.181,28.616 -0.36,28.045 -0.537,27.475C-0.911,26.342 -1.369,25.234 -1.853,24.139C-2.814,21.948 -3.86,19.801 -4.774,17.606C-5.691,15.412 -6.653,13.238 -7.653,11.094C-8.163,10.027 -8.676,8.963 -9.25,7.946C-9.531,7.435 -9.833,6.937 -10.163,6.479C-10.48,6.04 -10.89,5.561 -11.238,5.483L-11.24,5.483L-12.396,5.359L-11.356,4.901C-7.632,3.262 -3.876,1.716 -0.103,0.214L0.749,-0.125L0.996,0.81C1.662,3.343 2.121,5.925 2.471,8.517C2.826,11.114 2.964,13.719 2.943,16.345C2.932,18.985 2.537,21.634 1.78,24.159C1.411,25.424 0.972,26.66 0.49,27.868L-0.227,29.675C-0.335,29.974 -0.454,30.279 -0.515,30.575C-0.549,30.728 -0.542,30.861 -0.476,30.866C-0.378,30.893 -0.208,30.842 -0.065,30.802" style="fill-rule:nonzero;"/>
    </g>
</svg>
