<?xml version="1.0" encoding="UTF-8"?>
<!DOCTYPE svg PUBLIC "-//W3C//DTD SVG 1.1//EN" "http://www.w3.org/Graphics/SVG/1.1/DTD/svg11.dtd">
<svg xmlns="http://www.w3.org/2000/svg" version="1.1" width="706px" height="507px" style="shape-rendering:geometricPrecision; text-rendering:geometricPrecision; image-rendering:optimizeQuality; fill-rule:evenodd; clip-rule:evenodd" xmlns:xlink="http://www.w3.org/1999/xlink">
<g><path style="opacity:1" fill="#040100" d="M 120.5,-0.5 C 123.5,-0.5 126.5,-0.5 129.5,-0.5C 154.286,0.515452 178.953,3.68212 203.5,9C 243.356,18.1308 282.69,29.1308 321.5,42C 378.848,63.8206 429.848,95.4873 474.5,137C 515.943,176.765 554.11,219.265 589,264.5C 619.733,304.968 649.733,345.968 679,387.5C 691.756,406.993 700.59,427.993 705.5,450.5C 705.5,456.167 705.5,461.833 705.5,467.5C 704.05,474.843 701.05,481.51 696.5,487.5C 706.227,469.304 707.06,450.637 699,431.5C 687.582,404.784 672.916,380.117 655,357.5C 611.689,298.839 565.355,242.505 516,188.5C 476.014,145.816 430.848,109.982 380.5,81C 340.821,60.3286 299.155,44.9953 255.5,35C 223.971,26.0276 191.971,19.3609 159.5,15C 122.68,8.97523 87.6798,14.3086 54.5,31C 28.2526,46.9686 14.4193,70.4686 13,101.5C 11.4885,124.479 11.1551,147.479 12,170.5C 13.803,189.779 22.1363,205.446 37,217.5C 37.4643,216.906 37.631,216.239 37.5,215.5C 37.8333,215.5 38.1667,215.5 38.5,215.5C 37.4682,228.378 40.6348,240.045 48,250.5C 50.5009,242.331 53.0009,234.164 55.5,226C 52.7811,219.227 49.7811,212.561 46.5,206C 46.8333,205.5 47.1667,205 47.5,204.5C 52.1787,206.339 56.8453,207.839 61.5,209C 64.8242,200.682 68.1575,192.348 71.5,184C 70.9561,182.053 69.6228,181.22 67.5,181.5C 50.7726,185.568 41.4392,196.235 39.5,213.5C 39.1667,213.5 38.8333,213.5 38.5,213.5C 39.432,195.79 47.7654,182.956 63.5,175C 79.9372,172.301 92.4372,178.134 101,192.5C 111.959,214.105 110.792,234.939 97.5,255C 123.255,266.585 149.255,277.585 175.5,288C 228.68,307.727 282.014,327.06 335.5,346C 353.993,352.582 371.993,360.249 389.5,369C 434.171,405.148 482.171,436.315 533.5,462.5C 533.167,462.5 532.833,462.5 532.5,462.5C 481.276,438.062 433.61,408.228 389.5,373C 385.993,370.746 382.327,368.746 378.5,367C 309.53,365.052 241.863,354.719 175.5,336C 128.807,321.483 84.4736,301.817 42.5,277C 32.0561,270.222 21.8895,263.056 12,255.5C 10.8259,238.192 10.1592,220.859 10,203.5C 4.6209,192.624 1.1209,181.291 -0.5,169.5C -0.5,148.167 -0.5,126.833 -0.5,105.5C 1.78686,57.6996 25.4535,25.5329 70.5,9C 86.8832,3.55056 103.55,0.383893 120.5,-0.5 Z M 38.5,215.5 C 39.3382,215.158 39.6716,214.492 39.5,213.5C 41.4392,196.235 50.7726,185.568 67.5,181.5C 69.6228,181.22 70.9561,182.053 71.5,184C 68.1575,192.348 64.8242,200.682 61.5,209C 56.8453,207.839 52.1787,206.339 47.5,204.5C 47.1667,205 46.8333,205.5 46.5,206C 49.7811,212.561 52.7811,219.227 55.5,226C 53.0009,234.164 50.5009,242.331 48,250.5C 40.6348,240.045 37.4682,228.378 38.5,215.5 Z M 75.5,183.5 C 85.8945,190.269 91.7279,199.936 93,212.5C 95.1622,226.02 92.8289,238.687 86,250.5C 84.3333,253.5 82,255.833 79,257.5C 77.5811,248.875 77.2478,240.208 78,231.5C 82.4666,226.032 87.3,220.865 92.5,216C 87.9797,214.2 83.313,212.7 78.5,211.5C 76.7297,202.259 75.7297,192.926 75.5,183.5 Z M 75.5,245.5 C 74.8333,245.5 74.1667,245.5 73.5,245.5C 71.0307,239.897 68.0307,234.564 64.5,229.5C 62.4807,231.19 60.4807,232.856 58.5,234.5C 58.9272,231.624 59.5938,228.791 60.5,226C 57.7175,220.383 54.7175,214.883 51.5,209.5C 51.8333,209.167 52.1667,208.833 52.5,208.5C 55.7623,209.721 59.0957,210.221 62.5,210C 65.461,204.578 68.2943,199.078 71,193.5C 72.4652,200.33 73.2986,207.33 73.5,214.5C 78.4869,215.331 83.4869,216.164 88.5,217C 84.701,221.801 80.5343,226.301 76,230.5C 75.5007,235.489 75.3341,240.489 75.5,245.5 Z M 62.5,237.5 C 63.4959,237.414 64.3292,237.748 65,238.5C 68.8494,245.01 72.6827,251.51 76.5,258C 69.6673,262.553 62.6673,262.553 55.5,258C 53.9571,256.122 52.1238,254.622 50,253.5C 49.3333,252.833 49.3333,252.167 50,251.5C 54.7454,247.26 58.912,242.593 62.5,237.5 Z"/></g>
<g><path style="opacity:0.808" fill="#601c1c" d="M 56.5,73.5 C 55.8333,73.5 55.5,73.8333 55.5,74.5C 54.3871,73.0536 54.2204,71.3869 55,69.5C 55.4101,70.9007 55.9101,72.234 56.5,73.5 Z"/></g>
<g><path style="opacity:1" fill="#100503" d="M 56.5,73.5 C 60.5172,88.8696 67.6838,102.536 78,114.5C 99.2129,136.68 123.38,154.846 150.5,169C 197.025,192.668 245.025,212.501 294.5,228.5C 235.864,217.568 180.864,197.068 129.5,167C 104.185,152.353 83.3514,132.853 67,108.5C 60.5831,98.0085 56.7497,86.6752 55.5,74.5C 55.5,73.8333 55.8333,73.5 56.5,73.5 Z"/></g>
<g><path style="opacity:0.039" fill="#884816" d="M 38.5,213.5 C 38.8333,213.5 39.1667,213.5 39.5,213.5C 39.6716,214.492 39.3382,215.158 38.5,215.5C 38.1667,215.5 37.8333,215.5 37.5,215.5C 37.3284,214.508 37.6618,213.842 38.5,213.5 Z"/></g>
<g><path style="opacity:0.443" fill="#852224" d="M 294.5,228.5 C 295.239,228.369 295.906,228.536 296.5,229C 295.563,229.692 294.897,229.525 294.5,228.5 Z"/></g>
<g><path style="opacity:0.655" fill="#705a23" d="M 73.5,245.5 C 74.1667,245.5 74.8333,245.5 75.5,245.5C 75.2144,247.933 74.5477,247.933 73.5,245.5 Z"/></g>
<g><path style="opacity:0.808" fill="#781f20" d="M 188.5,262.5 C 187.833,261.167 187.833,261.167 188.5,262.5 Z"/></g>
<g><path style="opacity:0.808" fill="#781f20" d="M 188.5,262.5 C 189.167,262.5 189.5,262.833 189.5,263.5C 189.167,263.167 188.833,262.833 188.5,262.5 Z"/></g>
<g><path style="opacity:1" fill="#250505" d="M 189.5,263.5 C 190.167,263.5 190.5,263.833 190.5,264.5C 190.167,264.167 189.833,263.833 189.5,263.5 Z"/></g>
<g><path style="opacity:0.808" fill="#781f20" d="M 190.5,264.5 C 191.492,264.328 192.158,264.662 192.5,265.5C 191.508,265.672 190.842,265.338 190.5,264.5 Z"/></g>
<g><path style="opacity:1" fill="#000000" d="M 192.5,265.5 C 193.167,265.5 193.5,265.833 193.5,266.5C 193.167,266.167 192.833,265.833 192.5,265.5 Z"/></g>
<g><path style="opacity:1" fill="#230e0a" d="M 193.5,266.5 C 194.492,266.328 195.158,266.662 195.5,267.5C 194.508,267.672 193.842,267.338 193.5,266.5 Z"/></g>
<g><path style="opacity:1" fill="#000000" d="M 195.5,267.5 C 196.492,267.328 197.158,267.662 197.5,268.5C 196.508,268.672 195.842,268.338 195.5,267.5 Z"/></g>
<g><path style="opacity:1" fill="#180806" d="M 197.5,268.5 C 204.715,270.959 212.048,273.126 219.5,275C 245.228,279.344 270.895,284.01 296.5,289C 330.261,296.359 361.594,309.359 390.5,328C 430.652,358.58 474.985,381.58 523.5,397C 547.795,404.765 572.462,411.098 597.5,416C 537.536,408.345 481.203,389.679 428.5,360C 408.5,346.667 388.5,333.333 368.5,320C 343.071,306.954 316.404,297.287 288.5,291C 265.477,286.441 242.477,281.774 219.5,277C 211.646,275.221 204.313,272.387 197.5,268.5 Z"/></g>
<g><path style="opacity:0.808" fill="#62181b" d="M 598.5,417.5 C 599.946,416.387 601.613,416.22 603.5,417C 601.866,417.494 600.199,417.66 598.5,417.5 Z"/></g>
<g><path style="opacity:0.443" fill="#8b2425" d="M 605.5,417.5 C 606.833,418.167 606.833,418.167 605.5,417.5 Z"/></g>
<g><path style="opacity:1" fill="#220e0a" d="M 532.5,462.5 C 532.833,462.5 533.167,462.5 533.5,462.5C 547.151,468.659 560.484,475.325 573.5,482.5C 559.407,476.62 545.74,469.953 532.5,462.5 Z"/></g>
<g><path style="opacity:1" fill="#000000" d="M 573.5,482.5 C 574.492,482.328 575.158,482.662 575.5,483.5C 574.508,483.672 573.842,483.338 573.5,482.5 Z"/></g>
<g><path style="opacity:0.337" fill="#3c1312" d="M 575.5,483.5 C 580.251,484.71 584.584,486.71 588.5,489.5C 583.749,488.29 579.416,486.29 575.5,483.5 Z"/></g>
<g><path style="opacity:0.973" fill="#330909" d="M 588.5,489.5 C 589.492,489.328 590.158,489.662 590.5,490.5C 589.508,490.672 588.842,490.338 588.5,489.5 Z"/></g>
<g><path style="opacity:0.922" fill="#3a120f" d="M 590.5,490.5 C 591.492,490.328 592.158,490.662 592.5,491.5C 591.508,491.672 590.842,491.338 590.5,490.5 Z"/></g>
<g><path style="opacity:0.882" fill="#3f1111" d="M 592.5,491.5 C 595.912,492.042 598.912,493.375 601.5,495.5C 598.088,494.958 595.088,493.625 592.5,491.5 Z"/></g>
<g><path style="opacity:0.78" fill="#4b1615" d="M 601.5,495.5 C 603.553,495.402 605.22,496.069 606.5,497.5C 604.447,497.598 602.78,496.931 601.5,495.5 Z"/></g>
<g><path style="opacity:0.855" fill="#5f1718" d="M 606.5,497.5 C 607.791,497.263 608.791,497.596 609.5,498.5C 608.209,498.737 607.209,498.404 606.5,497.5 Z"/></g>
<g><path style="opacity:0.247" fill="#741d1e" d="M 609.5,498.5 C 610.239,498.369 610.906,498.536 611.5,499C 610.563,499.692 609.897,499.525 609.5,498.5 Z"/></g>
<g><path style="opacity:0.839" fill="#63181a" d="M 615.5,500.5 C 614.448,500.649 613.448,500.483 612.5,500C 613.749,499.26 614.749,499.427 615.5,500.5 Z"/></g>
<g><path style="opacity:0.427" fill="#791e20" d="M 615.5,500.5 C 616.791,500.263 617.791,500.596 618.5,501.5C 617.209,501.737 616.209,501.404 615.5,500.5 Z"/></g>
<g><path style="opacity:1" fill="#180805" d="M 696.5,487.5 C 692.049,495.398 685.382,500.398 676.5,502.5C 680.103,500.36 683.77,498.193 687.5,496C 690.369,492.962 693.369,490.129 696.5,487.5 Z"/></g>
<g><path style="opacity:0.882" fill="#4e1215" d="M 618.5,501.5 C 619.552,501.351 620.552,501.517 621.5,502C 620.251,502.74 619.251,502.573 618.5,501.5 Z"/></g>
<g><path style="opacity:0.659" fill="#64181a" d="M 622.5,503.5 C 623.251,502.427 624.251,502.26 625.5,503C 624.552,503.483 623.552,503.649 622.5,503.5 Z"/></g>
<g><path style="opacity:1" fill="#1a0704" d="M 673.5,503.5 C 674.209,502.596 675.209,502.263 676.5,502.5C 675.791,503.404 674.791,503.737 673.5,503.5 Z"/></g>
<g><path style="opacity:0.267" fill="#771e1f" d="M 631.5,504.5 C 629.801,504.66 628.134,504.494 626.5,504C 628.387,503.22 630.054,503.387 631.5,504.5 Z"/></g>
<g><path style="opacity:0.392" fill="#6a1c1d" d="M 631.5,504.5 C 633.527,504.338 635.527,504.505 637.5,505C 635.288,505.789 633.288,505.622 631.5,504.5 Z"/></g>
<g><path style="opacity:1" fill="#260f0b" d="M 673.5,503.5 C 670.913,504.749 668.246,505.749 665.5,506.5C 663.167,506.5 660.833,506.5 658.5,506.5C 663.304,505.139 668.304,504.139 673.5,503.5 Z"/></g>
<g><path style="opacity:0.149" fill="#5b1919" d="M 638.5,506.5 C 640.833,505.167 643.167,505.167 645.5,506.5C 643.167,506.5 640.833,506.5 638.5,506.5 Z"/></g>
<g><path style="opacity:0.808" fill="#751d1f" d="M 646.5,506.5 C 650.167,505.167 653.833,505.167 657.5,506.5C 653.833,506.5 650.167,506.5 646.5,506.5 Z"/></g>
</svg>
