<?xml version="1.0" standalone="no"?>
<!DOCTYPE svg PUBLIC "-//W3C//DTD SVG 20010904//EN"
 "http://www.w3.org/TR/2001/REC-SVG-20010904/DTD/svg10.dtd">
<svg version="1.0" xmlns="http://www.w3.org/2000/svg"
 width="705.385542pt" height="506.754236pt" viewBox="0 0 705.385542 506.754236"
 preserveAspectRatio="xMidYMid meet">
<metadata>
Created by potrace 1.12, written by Peter Selinger 2001-2015
</metadata>
<g transform="translate(-0.500000,506.873012) scale(0.100000,-0.100000)"
fill="#000000" stroke="none">
<path d="M1165 5063 c-562 -33 -988 -316 -1109 -735 -44 -155 -51 -238 -51
-628 0 -407 5 -448 70 -605 l34 -80 4 -249 3 -249 30 -24 c55 -45 289 -200
389 -258 337 -195 837 -410 1230 -530 510 -155 1165 -263 1795 -297 256 -13
265 -15 380 -108 270 -217 684 -485 1104 -714 195 -107 733 -376 750 -376 6 1
-108 61 -254 134 -653 326 -1132 621 -1535 943 -138 111 -139 111 -265 166
-151 66 -334 134 -970 362 -892 320 -1227 449 -1637 630 l-152 66 30 47 c99
156 100 412 3 578 -28 48 -116 134 -160 157 -52 27 -130 38 -182 26 -140 -31
-242 -158 -279 -349 -9 -44 -19 -80 -23 -80 -14 0 -100 99 -139 160 -49 76
-75 142 -97 251 -14 71 -16 128 -11 408 8 489 37 626 172 816 140 197 406 339
730 390 149 24 497 16 700 -15 257 -39 584 -115 1060 -245 890 -243 1525 -624
2255 -1355 435 -434 892 -981 1505 -1800 321 -428 463 -701 496 -946 36 -270
-93 -465 -354 -534 -50 -14 -59 -18 -28 -14 290 40 448 287 387 606 -33 170
-137 399 -283 623 -153 233 -732 1012 -1018 1370 -947 1181 -1717 1780 -2700
2098 -419 136 -1007 282 -1310 326 -117 17 -476 45 -510 39 -5 -1 -32 -3 -60
-5z m-442 -1828 c-4 -21 -95 -250 -102 -258 -4 -4 -39 4 -79 17 -40 14 -72 23
-72 20 0 -3 22 -51 48 -107 l49 -103 -42 -124 -42 -125 -22 35 c-60 97 -85
248 -62 362 26 123 125 257 212 285 41 14 115 12 112 -2z m93 -47 c132 -122
167 -381 78 -574 -30 -63 -86 -130 -102 -120 -8 5 -12 47 -12 133 l0 125 76
78 76 79 -38 10 c-22 5 -55 14 -74 18 -29 8 -36 15 -42 44 -12 56 -24 249 -15
249 4 0 28 -19 53 -42z m-81 -170 l7 -96 76 -14 76 -13 -67 -71 -67 -71 0 -77
c0 -42 -3 -76 -7 -76 -5 0 -26 34 -48 76 -22 41 -45 80 -51 85 -8 7 -21 -2
-43 -28 -36 -43 -36 -43 -15 26 l15 52 -46 80 c-26 45 -45 83 -42 85 2 3 26 0
52 -6 26 -6 49 -9 50 -8 2 2 24 44 51 93 27 50 50 83 51 75 1 -8 5 -58 8 -112z
m-21 -434 c36 -58 66 -107 66 -109 0 -9 -68 -25 -105 -25 -44 0 -131 38 -160
70 -17 18 -15 22 51 94 38 42 72 76 75 76 4 0 36 -48 73 -106z"/>
<path d="M556 4320 c8 -73 57 -220 101 -300 159 -293 500 -573 988 -810 265
-128 516 -225 820 -315 196 -57 463 -120 472 -111 4 3 1 6 -5 6 -19 0 -372
126 -582 207 -478 186 -829 357 -1120 548 -359 236 -580 492 -660 763 l-20 67
6 -55z"/>
<path d="M1895 2431 c31 -36 170 -97 295 -130 63 -17 210 -48 325 -70 529
-100 761 -167 1042 -301 154 -73 251 -132 426 -258 260 -186 480 -310 767
-432 287 -123 727 -254 1056 -315 182 -33 213 -30 49 5 -427 92 -813 218
-1180 387 -247 113 -356 179 -767 461 -155 107 -300 183 -483 255 -255 100
-434 144 -915 227 -402 69 -507 98 -599 167 -31 23 -33 24 -16 4z"/>
<path d="M5850 185 c0 -5 89 -45 99 -45 8 1 -81 49 -91 50 -5 0 -8 -2 -8 -5z"/>
<path d="M5960 134 c0 -7 92 -45 101 -42 5 2 -16 13 -46 25 -30 11 -55 19 -55
17z"/>
<path d="M6503 3 c15 -2 39 -2 55 0 15 2 2 4 -28 4 -30 0 -43 -2 -27 -4z"/>
</g>
</svg>
