<?xml version="1.0" encoding="utf-8"?>
<!DOCTYPE svg PUBLIC "-//W3C//DTD SVG 20010904//EN" "http://www.w3.org/TR/2001/REC-SVG-20010904/DTD/svg10.dtd">
<svg version="1.0" xmlns="http://www.w3.org/2000/svg" width="460px" height="460px" viewBox="0 0 460 460" preserveAspectRatio="xMidYMid meet">
 <g fill="#000000">
  <path d="M262.7 436.7 c-1.3 -2.5 -1.7 -5.1 -1.5 -10.1 0.3 -7.8 0.4 -7.8 9.3 -9.6 7.7 -1.5 17.3 -4.9 19.1 -6.7 0.8 -0.8 1.4 -3.2 1.4 -5.3 0 -6.5 -7.7 -12.1 -26 -18.8 -4.7 -1.7 -11.8 -4.3 -15.8 -5.8 -8.2 -2.9 -19.3 -6.1 -26.2 -7.4 -2.5 -0.5 -6.5 -1.6 -8.9 -2.4 -2.4 -0.9 -5.2 -1.6 -6.2 -1.6 -4.5 0 -0.7 -2.4 12.1 -7.7 1.9 -0.8 6.3 -2.8 9.8 -4.5 7.4 -3.6 5.5 -3.9 34.2 4.1 24.4 6.8 33.8 9.9 42.6 14 6.2 2.9 13.2 8.7 12.6 10.4 -0.2 0.5 0.5 1.8 1.5 2.9 1.4 1.5 1.9 4.1 2.2 10.6 0.7 18.7 -4.6 29 -18.8 36.2 -8 4 -13 5 -26.6 5 l-13 0 -1.8 -3.3z m14.9 0.8 c2.4 -2.4 1.2 -8.9 -2.4 -13.4 -3.7 -4.6 -8.9 -5.1 -10.9 -1.1 -1.7 3.4 -1.6 10.1 0.2 12.6 0.8 1.2 1.2 2.3 1 2.6 -0.3 0.3 2 0.6 5 0.7 4 0.1 6 -0.2 7.1 -1.4z m26.2 -7.5 c0.4 -2.5 -6.3 -10.1 -10.8 -12.5 -3.4 -1.7 -9.4 -0.8 -8.6 1.4 3.3 9.8 5.6 15.5 6.6 16.1 0.6 0.4 3.7 -0.1 6.8 -1 4.5 -1.4 5.8 -2.2 6 -4z m12.5 -12.2 c3.9 -10.4 4.7 -21.2 1.9 -24 -2.1 -2.1 -11.8 0.1 -17.7 4 -4.7 3.1 -5.5 4.1 -5.5 6.7 0 2.6 0.5 3.3 3.6 4.4 4.3 1.6 10 6.4 12 10.2 2 4 3.9 3.6 5.7 -1.3z m-23.9 -27.3 c3.8 -2.9 14.1 -7.6 14.9 -6.8 0.4 0.3 1.8 0.3 3.2 -0.1 3.1 -0.8 3.3 -3.3 0.3 -3.4 -1.3 0 -6.1 -1.7 -10.8 -3.7 -5.4 -2.3 -9.2 -3.4 -10.8 -3 -3.3 0.8 -13.3 11.2 -12.6 13 0.4 0.8 1.1 1.5 1.8 1.6 0.6 0 2.7 1.1 4.6 2.4 4.5 3 5.4 3 9.4 0z m-26.7 -8.1 c-0.3 -0.4 2.6 -3.8 6.6 -7.6 4 -3.8 6.8 -6.8 6.2 -6.6 -0.5 0.1 -4 -0.8 -7.7 -2.1 l-6.7 -2.2 -4.4 1.9 c-4.4 2 -8.7 6.7 -8.7 9.5 0 2 1.2 2.7 8.5 5.3 7.4 2.6 7 2.5 6.2 1.8z m-24.9 -10.1 c0.7 -1.6 2.8 -4.5 4.7 -6.7 4.4 -4.8 4.4 -6.3 0.1 -7.2 -5.2 -0.9 -9.8 1.1 -13.4 5.8 -4.5 5.8 -4.2 7.4 1.6 9.2 2.6 0.8 4.9 1.5 5.2 1.5 0.3 0.1 1.1 -1.1 1.8 -2.6z m-20.2 -8.1 c-0.2 -0.2 -2.1 0.4 -4.2 1.3 -4 1.6 -3.8 3.1 0.6 3.7 1.9 0.2 2.7 -0.3 3.2 -2.1 0.4 -1.4 0.6 -2.7 0.4 -2.9z"/>
  <path d="M12.5 410.8 c-2.6 -2.4 -5.3 -5.5 -6.1 -7 -1.5 -2.8 -1.8 -10 -0.5 -13.2 0.6 -1.6 9.5 -5.2 17.6 -7.1 1.1 -0.2 6.7 -2 12.5 -4 5.8 -1.9 11 -3.5 11.6 -3.5 0.6 0 3.2 -0.9 5.8 -2.1 2.6 -1.1 7 -2.6 9.9 -3.4 2.9 -0.8 7 -2.2 9.2 -3.1 2.2 -1 4.2 -1.8 4.5 -1.9 4.8 -1.3 13.1 -4 15 -5 1.4 -0.7 5.2 -2.1 8.5 -3.1 3.3 -1 7.7 -2.7 9.7 -3.6 2 -1 4.8 -1.8 6.2 -1.8 1.3 0 2.6 -0.5 2.8 -1.1 0.4 -1.1 16.1 -6.8 18.9 -6.9 0.9 0 5.6 4.4 10.4 9.7 l8.8 9.7 -5.5 2.5 c-10.2 4.8 -13.3 6 -16.3 6.5 -1.6 0.3 -4.3 1.2 -6 2 -1.6 0.7 -4.6 1.9 -6.5 2.6 -1.9 0.6 -7.1 2.5 -11.5 4.1 -4.4 1.7 -8.7 3.1 -9.5 3.3 -0.8 0.1 -3.1 0.9 -5.1 1.8 -1.9 0.8 -6.9 2.5 -11 3.8 -4.1 1.2 -8.3 2.5 -9.4 3 -4.3 1.6 -9.3 3.3 -15 5.1 -7.5 2.5 -17.9 6.6 -22.7 9 -2 1 -7 3 -11 4.3 -4 1.3 -8.1 2.7 -9 3.1 -1.1 0.5 -3.1 -0.7 -6.3 -3.7z m7.7 -2 c5.7 -4.7 6.2 -10.6 1.4 -16.3 l-3.4 -4 -4.3 1.6 -4.4 1.6 -0.3 5.7 c-0.3 5.3 -0.1 5.9 3.1 9.1 3.8 3.8 5.4 4.2 7.9 2.3z m21.1 -7.6 c2.7 -1.2 5.2 -2.2 5.5 -2.2 1.2 0 6.2 -8.9 6.2 -10.9 0 -1.7 -3.3 -6.8 -5.4 -8.3 -1.1 -0.8 -2.8 -0.5 -10 1.8 -3.1 1 -5.6 2.2 -5.6 2.6 0 0.5 0.7 2.3 1.6 4.1 1.1 2 1.6 5.4 1.6 9.5 -0.1 3.5 0.2 6.2 0.6 6 0.4 -0.2 2.9 -1.4 5.5 -2.6z m33.6 -12.2 c9.7 -3.3 10.4 -3.7 12.3 -7.4 1.4 -2.8 1.9 -5.1 1.5 -7.9 -0.9 -6.5 -2.4 -6.9 -15 -3 -6 1.8 -11.6 3.3 -12.3 3.3 -1.8 0 -1.8 1.4 0.2 5.2 1.2 2.3 1.5 4.7 1.1 8.5 -0.4 3.9 -0.2 5.3 0.6 5.1 0.7 -0.2 5.9 -1.9 11.6 -3.8z m40.1 -12.9 c15 -4.7 15.5 -5 16.3 -8 0.9 -3.7 -1 -8.6 -4.8 -12.1 l-2.4 -2.2 -13.5 4.7 c-7.5 2.6 -13.6 5.1 -13.6 5.5 0 0.4 0.7 2.6 1.5 5 1.1 3 1.2 5.3 0.6 8.1 -0.5 2.1 -0.6 3.9 -0.2 3.9 0.3 0 7.6 -2.2 16.1 -4.9z m37.8 -11.7 c2.6 -0.7 2.7 -1.3 0.8 -2.8 -0.7 -0.6 -4.5 -3.7 -8.4 -6.9 -8.8 -7.2 -11.4 -7.4 -7.7 -0.5 1.4 2.7 2.5 6.4 2.5 8.6 0 2.1 0.3 4.1 0.6 4.5 0.3 0.3 2.7 -0.1 5.2 -0.9 2.6 -0.8 5.7 -1.7 7 -2z"/>
 </g>
 <g fill="#ffffff">
  <path d="M282 435.1 c0 -1.6 -1.5 -5.9 -3.4 -9.5 l-3.5 -6.6 2.5 0 c2.9 0 5.7 4.1 8 11.9 1.3 4.4 1.3 5.5 0.2 6.2 -2.5 1.6 -3.8 0.9 -3.8 -2z"/>
  <path d="M306.2 425.5 c-1.4 -3.7 -7.3 -8.9 -12.1 -10.6 -1.9 -0.7 -2.8 -1.5 -2.4 -2.5 1.5 -4.1 10.8 0.8 15.8 8.3 2.9 4.4 3.4 5.7 2.4 6.9 -1.7 2.1 -2.4 1.8 -3.7 -2.1z"/>
  <path d="M25 406.5 c0 -0.3 0.7 -1.7 1.6 -3 1.9 -3 1.2 -7 -2.2 -12 -1.3 -2 -2.4 -3.8 -2.4 -4.1 0 -0.2 1.2 -0.9 2.7 -1.5 3.4 -1.3 6.5 1.4 8.2 7.1 1.8 6 0 11.5 -4.1 12.9 -3.6 1.3 -3.8 1.3 -3.8 0.6z"/>
  <path d="M292 397.5 c-1.7 -2.1 1.3 -5.3 8.5 -8.9 7.2 -3.7 13.3 -4.5 15.2 -2.1 2 2.8 1.7 3.2 -3.7 3.8 -4.6 0.6 -12.5 4.1 -16.1 7.3 -2 1.8 -2.4 1.8 -3.9 -0.1z"/>
  <path d="M53.5 394 c2.6 -5 2.2 -9.6 -1 -13 -3.2 -3.3 -3.1 -3.7 1.1 -4.5 2.5 -0.5 3.2 -0.1 5.2 2.8 2.2 3.3 3.1 11.8 1.4 14.3 -0.6 0.9 -6.4 3.4 -7.9 3.4 -0.2 0 0.3 -1.4 1.2 -3z"/>
  <path d="M270 383.7 c0 -1.8 2.6 -5.2 7.3 -9.7 4.2 -4 6.9 -4.8 9.7 -3 1.1 0.7 1.2 1 0.2 1 -0.8 0 -4.4 2.9 -8.1 6.5 -6.6 6.4 -9.1 7.8 -9.1 5.2z"/>
  <path d="M90.7 379.9 c0.9 -5.2 0.8 -7.3 -0.2 -11.5 -0.6 -2.6 -0.4 -3.2 1.4 -3.7 1.6 -0.4 2.4 0.3 4.1 3.7 1.1 2.3 2 4.9 2 5.8 0 2.3 -2.9 8.8 -3.9 8.8 -0.5 0 -1.7 0.3 -2.5 0.6 -1.4 0.6 -1.6 0.1 -0.9 -3.7z"/>
  <path d="M244.9 376.8 c-1.1 -3.7 1.6 -8.9 6.8 -13.2 2.4 -2 3.8 -2.5 5.7 -2 2.8 0.7 2.6 2.4 -0.4 2.4 -2.3 0 -6.5 4.9 -8 9.5 -0.6 1.9 -1.8 3.5 -2.6 3.5 -0.8 0 -1.4 -0.1 -1.5 -0.2z"/>
  <path d="M222.5 368.8 c0.4 -1.3 1.1 -2.7 1.6 -3.3 0.5 -0.5 0.9 -1.7 0.9 -2.6 0 -1 1.2 -2.1 2.8 -2.7 1.5 -0.5 3.6 -1.4 4.7 -1.8 1.4 -0.6 1.1 0.1 -1.2 2.4 -1.7 1.8 -3.7 4.8 -4.3 6.7 -0.8 2.4 -1.8 3.5 -3.1 3.5 -1.6 0 -1.9 -0.4 -1.4 -2.2z"/>
  <path d="M133 366.1 c0 -4.8 -1.4 -8.9 -4.2 -11.8 l-2 -2.1 2.2 -0.7 c2.6 -0.8 4.6 0.7 7.1 5.6 3.1 6.2 2.2 12.9 -1.8 12.9 -0.8 0 -1.3 -1.4 -1.3 -3.9z"/>
 </g>
</svg>