<?xml version="1.0" encoding="utf-8"?>
<!DOCTYPE svg PUBLIC "-//W3C//DTD SVG 20010904//EN" "http://www.w3.org/TR/2001/REC-SVG-20010904/DTD/svg10.dtd">
<svg version="1.0" xmlns="http://www.w3.org/2000/svg" width="500px" height="500px" viewBox="0 0 500 500" preserveAspectRatio="xMidYMid meet">
 <g fill="#000000">
  <path d="M358.5 384.8 c-8.1 -7.1 -22.2 -31.5 -28.5 -49.3 -3 -8.3 -3.2 -9.7 -2.6 -18 0.5 -8.9 1.4 -12.6 16.5 -71 7.2 -27.6 8.5 -31 23 -61.9 2.8 -6 5 -11 4.8 -11.2 -0.2 -0.2 -9.5 0 -20.8 0.4 -24.8 1 -61.5 -0.1 -76.4 -2.3 -6 -0.9 -14.6 -2.7 -19 -4 -24.9 -7.5 -57.9 -31.7 -86.6 -63.7 -7.3 -8.1 -7.9 -9.1 -7.9 -13.1 0 -5.1 1.1 -6.4 23.5 -24.8 31.5 -26 35.4 -28.2 52.7 -28.7 13.4 -0.5 24.8 0.8 39.8 4.4 45.1 10.9 82 29.4 106.1 53.4 9.7 9.5 14 17.2 19.9 35.4 2.7 8.1 4.1 10.8 8.1 15.2 3.7 4.1 4.9 6.3 5.4 9.8 1 6.4 -0.2 12.8 -3 17 -3.6 5.3 -4.3 9.1 -6.5 32.6 -5 56.1 -5.4 62.8 -4.1 76.5 2.2 23.6 7.5 49.6 14.1 68.9 1.6 5 3 10.7 3 12.8 0 3.7 -0.1 3.8 -3.7 3.8 -3.3 0 -4.5 -0.8 -9.4 -6 -15.9 -16.7 -25.3 -51.9 -27.6 -103 -0.7 -17.4 -0.7 -17.4 -1.5 -8.5 -1.6 21 -3.9 57.1 -5.3 86 -0.8 17.1 -1.7 35.8 -2.1 41.8 l-0.6 10.7 -3.9 0 c-2.9 0 -4.7 -0.8 -7.4 -3.2z m2.5 -47.3 c0.6 -9.3 1.5 -25.3 2 -35.5 1.2 -22.2 3.9 -57.9 4.7 -63.5 0.3 -2.2 0.3 -3.7 0 -3.4 -1.2 1 -9.6 31.5 -11.2 40.5 -2.2 12.5 -3 34 -1.6 45.4 0.7 5.2 1.4 12.8 1.8 16.8 l0.6 7.2 -3.6 0 c-3.4 0 -3.6 -0.2 -5.1 -5.4 -2.5 -8.6 -4.4 -19.6 -5.2 -30.2 l-0.7 -9.9 -2.5 10.3 c-2.3 9.2 -2.4 10.7 -1.2 14.5 0.8 2.3 1.7 4.7 2 5.2 0.4 0.6 1.5 3 2.4 5.5 0.9 2.5 5 10.5 8.9 17.8 l7.2 13.2 0.2 -5.7 c0.2 -3.2 0.7 -13.4 1.3 -22.8z m33.4 -120.5 c2.3 -27.9 3 -38.6 2.3 -37.9 -0.8 0.6 -2.1 10 -3.7 24.9 -2.1 19.4 -2.9 41.4 -2.2 58 l0.7 16.5 0.7 -21 c0.3 -11.5 1.3 -29.8 2.2 -40.5z m8.5 -52.6 c2.8 -3.6 2.6 -5.8 -0.5 -8.3 -2.8 -2.2 -5.4 -2.7 -5.4 -1.1 0 0.6 -1 1 -2.2 1 -1.3 0 -3.6 0.7 -5.2 1.5 -1.5 0.8 -3.9 1.5 -5.2 1.5 -1.9 0 -2.4 0.5 -2.4 2.4 0 5.3 0.6 5.6 10 5.6 8.4 0 9 -0.1 10.9 -2.6z m-33.1 -3.6 c0.7 -0.7 1.2 -4.3 1.2 -9.1 0 -4.3 0.4 -8.7 1 -9.7 1.4 -2.6 6.3 -4 14.6 -4 l7.3 0 -0.8 -2.8 c-0.5 -1.5 -2.8 -7.2 -5.2 -12.6 -6.3 -14.2 -17.2 -25.5 -37.5 -38.9 -10.2 -6.7 -31.4 -17.8 -31.4 -16.4 0 0.2 2.5 2.1 5.5 4.2 10 6.9 14.5 12.9 24.9 33.4 5.2 10.4 10.4 20.4 11.5 22.2 1.2 1.9 2.1 5.1 2.1 7.2 0 3.6 -0.1 3.7 -3.5 3.7 -3 0 -3.9 -0.7 -7.7 -5.7 -5.9 -8.1 -14.4 -21.6 -18.4 -29.5 -4.9 -9.8 -11.6 -17.2 -25.1 -27.8 -10.8 -8.4 -12.2 -9.9 -12.5 -12.9 l-0.3 -3.4 -10.5 -2.9 c-14.8 -4 -36 -7.8 -43.6 -7.8 -3.8 0 -8.3 0.7 -11.2 1.8 -5 1.9 -14.2 7.8 -10.7 6.9 8.4 -2.3 23.4 -4.9 30.3 -5.4 l8.2 -0.6 0 3.7 c0 2 -0.2 3.6 -0.4 3.6 -0.3 0 -9.4 1.8 -20.3 4 -23.7 4.8 -25.1 4.9 -25.5 1.6 -0.3 -2.3 -1.6 -1.4 -15.3 10 -8.2 6.9 -16.2 13.7 -17.7 15.2 l-2.8 2.7 12.2 12.5 c9.9 10.1 12.3 12.1 12.6 10.5 0.3 -1.3 -0.6 -2.7 -2.9 -4.5 -8.8 -6.6 -11.9 -10.2 -11.9 -13.6 0 -3.2 0.2 -3.4 3.5 -3.4 2.3 0 5.4 1.3 9.7 4 8.9 5.8 21 11.5 71.3 33.8 21.1 9.3 20.9 9.2 21.3 13.5 0.3 3.5 0.2 3.7 -2.8 3.7 -1.7 0 -8.6 -1.8 -15.3 -4.1 -6.7 -2.2 -12.9 -4.3 -13.7 -4.5 -4.5 -1.4 9 5.1 17.5 8.5 20.6 8.1 23.6 8.6 54.3 8.5 l27.2 -0.1 0 2.9 c0 2.7 0.2 2.8 4.8 2.8 2.6 0 5.3 -0.5 6 -1.2z m-106.9 -4.2 c-0.2 -0.2 -4.2 -2.3 -8.9 -4.7 -9.9 -5 -24.2 -13.8 -35.2 -21.5 -4.3 -3 -7.8 -5.2 -7.8 -5 0 0.8 14.1 12 20.5 16.3 6.2 4.2 20.5 11.6 26.5 13.9 3.5 1.2 5.7 1.7 4.9 1z"/>
  <path d="M369.2 130.3 c-2.7 -3.2 -7.7 -9.6 -11.1 -14.3 -5.1 -7.2 -6.1 -9.2 -6.1 -12.7 0 -4.3 0 -4.3 3.6 -4.3 3.1 0 4.4 0.9 9.6 6.3 3.3 3.4 8.4 9.9 11.4 14.3 4.4 6.6 5.4 8.9 5.4 12.3 l0 4.1 -3.9 0 c-3.5 0 -4.4 -0.6 -8.9 -5.7z"/>
 </g>
 <g fill="#ffffff">
  <path d="M0 250 l0 -250 250 0 250 0 0 250 0 250 -250 0 -250 0 0 -250z m367.4 124.3 c0.4 -6 1.3 -24.7 2.1 -41.8 2.7 -55 6 -99 8 -106.7 0.7 -2.9 2.1 -7 2.9 -9 2 -4.8 4.1 -5.1 3 -0.5 -1.4 6.3 -0.7 54.5 1 68.2 4.6 36.1 13.1 60.5 25.7 73.7 3.2 3.4 6.1 5.9 6.5 5.6 0.3 -0.4 -1 -5.5 -3 -11.5 -8.3 -25 -14.6 -61 -14.6 -83.2 0 -13.9 6.5 -87.5 8.2 -93.1 0.6 -1.9 1.9 -4.6 2.9 -5.9 2.9 -3.6 4.2 -9.5 3 -13.7 -0.5 -2 -3 -5.7 -5.4 -8.3 -3.6 -3.8 -5 -6.6 -7.7 -14.6 -5.9 -18.3 -10.2 -26 -19.9 -35.5 -20.1 -20 -49.5 -36.5 -84.6 -47.4 -24.7 -7.7 -43.8 -11.1 -58.4 -10.4 -14.2 0.7 -19.9 4.1 -52.1 30.9 -20.5 17.1 -21.4 18 -20.5 20.9 0.4 1.1 8.2 9.7 17.3 18.9 34.6 35 62.3 52.3 91.2 57 18.9 3.1 53.9 4.1 87.8 2.5 l15.5 -0.7 -0.6 3.4 c-0.3 1.9 -2.9 8.4 -5.7 14.4 -16.5 34.8 -15.4 31.4 -33.5 102.7 -7.3 28.8 -7.5 30.9 -3.5 42.3 3.8 10.8 14.4 31.5 20.5 40 4.3 6 10.7 12.5 12.4 12.5 0.5 0 1.2 -4.8 1.5 -10.7z"/>
  <path d="M359.3 373.2 c-0.6 -0.4 -2.8 -3.9 -4.8 -7.7 -9.3 -17.5 -14.3 -27.3 -15.5 -30.5 -0.7 -1.9 -1.9 -5.1 -2.6 -7 -2.1 -5.6 -1.9 -10.7 1.1 -23 3.5 -14.6 9 -34.7 10.5 -38 0.9 -2.1 1 -1.9 0.5 1.8 -3 23.6 -3 39 0 54.6 1.8 9.4 4.5 18.9 5.2 18.3 0.2 -0.3 -0.1 -4.1 -0.9 -8.4 -1.9 -11.8 -1.7 -48.4 0.5 -60 2.5 -13 8.4 -33.3 17.1 -58.7 4.2 -12 8 -23.5 8.5 -25.5 0.9 -3.2 0.9 -3.4 -0.4 -1.7 -1.4 1.9 -13.9 30.6 -19.1 44.1 -3.2 8.2 -4.7 10.4 -3.8 5.5 1.6 -8.8 16.3 -43.1 23.8 -55.8 2.3 -3.9 3.6 -5.2 5.1 -5 1.7 0.3 2 0.9 1.7 4.8 -0.6 9 -3.2 18.4 -8.2 29 -4.5 9.9 -5.1 12 -6.4 23.2 -2.3 19.7 -4.7 52.9 -7.3 103.3 -0.3 6.1 -0.6 12.6 -0.7 14.5 -0.1 1.9 -0.3 7.9 -0.4 13.3 -0.2 9.7 -0.7 10.9 -3.9 8.9z"/>
  <path d="M398.7 328.3 c-4.7 -12.2 -9.4 -35.9 -10.6 -53.8 -1.7 -24.4 0 -62.7 3.9 -90.5 0.5 -3.6 1 -6.8 1 -7.2 0 -0.5 1.6 -0.8 3.6 -0.8 l3.7 0 -0.6 12.3 c-0.3 6.7 -1.5 23.9 -2.7 38.2 -3.2 40.3 -2.4 65.1 2.9 95 1 5.5 2.2 10.8 2.6 11.8 0.4 0.9 0.3 1.7 -0.2 1.7 -0.6 0 -2.2 -3 -3.6 -6.7z"/>
  <path d="M379.6 168.4 c-0.3 -0.9 -0.6 -6 -0.6 -11.4 0 -11.1 -0.2 -11 9.7 -11 4.8 0 11.3 2.4 11.3 4.3 0 0.4 0.6 0.7 1.4 0.7 0.7 0 2.5 0.9 4 2.1 2.2 1.7 2.6 2.9 2.6 6.8 0 3.4 -0.6 5.6 -2.1 7.5 -2 2.5 -2.3 2.6 -13.9 2.6 -9.8 0 -11.9 -0.3 -12.4 -1.6z m7 -13.9 c1.6 -0.8 4 -1.5 5.4 -1.5 1.7 0 2.1 -0.3 1.3 -1.1 -1.3 -1.3 -8.5 0.5 -10.3 2.6 -1.6 1.9 0 1.9 3.6 0z"/>
  <path d="M300.1 165.8 c-25 -1.4 -41.8 -5.1 -56.4 -12.5 -11.5 -5.7 -18.4 -10.4 -31.7 -21.2 -11.5 -9.5 -41 -38.7 -41 -40.7 0 -1.5 9.9 -10.5 26.8 -24.3 23.7 -19.4 29 -22.1 43.5 -22.1 22.4 0 65.5 11.3 91.2 24 19.7 9.6 35.5 20.8 47.1 33.3 5.7 6.1 7.8 9.3 11.6 18.1 2.6 5.8 5.1 12.5 5.4 14.9 0.4 2.3 1.1 4.7 1.5 5.3 0.7 0.8 -1 1 -6 0.6 -8.5 -0.6 -13.6 0.3 -16.2 2.9 -1.6 1.6 -1.9 3.3 -1.9 10.3 0 6 -0.4 8.7 -1.4 9.5 -1.2 1 -47 3.2 -57.6 2.8 -1.4 -0.1 -8.1 -0.5 -14.9 -0.9z m41.9 -3.5 c5.8 -0.9 11.3 -1.9 12.2 -2.2 0.9 -0.3 -10.6 -0.6 -25.5 -0.6 -30.2 0 -33.4 -0.5 -53.2 -8.1 -10.4 -4 -38.8 -18.5 -52.3 -26.7 -11.2 -6.8 -17.6 -10.2 -16.7 -8.8 1 1.7 18.8 14.2 31 21.8 39.2 24.5 65.1 30.6 104.5 24.6z m-53.5 -18.3 c-0.7 -1.1 -4.5 -2.9 -25.2 -12.1 -7.3 -3.3 -19.3 -8.5 -26.5 -11.8 -20.3 -9 -33.8 -15.7 -40.7 -20.1 -3.4 -2.2 -6.5 -4 -6.8 -4 -1.8 0 7.1 7.7 14.2 12.5 15.8 10.4 40.9 21.7 70.5 31.6 16.4 5.5 15.3 5.2 14.5 3.9z m69.2 -14.2 c-1.3 -2.4 -6.6 -12.5 -11.6 -22.5 -10 -19.9 -14.2 -25.4 -24.6 -32.8 -7.9 -5.7 -19.6 -12.5 -21.3 -12.5 -0.8 0 4.3 4.5 11.2 10 13.8 11 20.1 18 25.1 27.9 6.2 12.3 22 35.9 23.2 34.7 0.3 -0.3 -0.6 -2.4 -2 -4.8z m21.3 2.1 c0 -4.2 -22.7 -32.1 -23.7 -29.2 -0.5 1.5 7.5 13.4 15.7 23.1 5.8 6.9 8 8.5 8 6.1z m-141.8 -73.5 c9.5 -1.9 17.5 -3.8 17.8 -4.1 1.5 -1.6 -33.6 4.8 -37 6.8 -2.8 1.6 1.3 1 19.2 -2.7z"/>
 </g>
</svg>