<?xml version="1.0" encoding="utf-8"?>
<!DOCTYPE svg PUBLIC "-//W3C//DTD SVG 20010904//EN" "http://www.w3.org/TR/2001/REC-SVG-20010904/DTD/svg10.dtd">
<svg version="1.0" xmlns="http://www.w3.org/2000/svg" width="500px" height="500px" viewBox="0 0 500 500" preserveAspectRatio="xMidYMid meet">
 <g fill="#000000">
  <path d="M371 287.2 c-3.6 -2.4 -4.9 -3.8 -11.6 -12.2 -7.3 -9 -8.8 -11.7 -11.2 -19.5 -1.7 -5.4 -1.8 -8 -1.1 -25 0.8 -19.2 2.5 -29.2 7.3 -42.4 2.8 -7.7 10.5 -20.9 13.4 -22.9 3.1 -2.2 11.4 -4.2 17.5 -4.2 l4.2 0 -0.6 -9.7 c-0.8 -11.4 -1.7 -15.6 -6 -27.9 -4.1 -11.7 -10.9 -24.2 -18 -32.9 -7.5 -9.3 -9.2 -10.7 -17.2 -15 -7.9 -4.1 -15.4 -6 -28.7 -7.4 -17.7 -1.7 -37.5 -4.1 -43.5 -5.1 -3.3 -0.5 -13.9 -1.5 -23.5 -2.1 -26.5 -1.6 -37 0.1 -49.5 7.9 -18 11.4 -24.2 16.7 -35 29.8 -2.8 3.3 -9.2 10.8 -14.3 16.5 -23.3 25.9 -43 56.4 -44.7 68.9 -0.4 3 -1.2 6.3 -1.7 7.3 -0.5 1 -1.1 5.3 -1.3 9.5 -0.2 4.2 -0.4 8.2 -0.5 8.7 0 0.6 -0.7 1.8 -1.4 2.8 -1.3 1.7 -1.7 1.7 -4.4 0.3 -1.7 -0.9 -6.5 -5.7 -10.8 -10.8 -6 -7.2 -9.1 -12.1 -13.7 -21.8 -5.6 -11.8 -5.9 -12.9 -6 -20.5 -0.1 -5.8 0.5 -9.7 2 -14 1.1 -3.3 3.1 -9.3 4.3 -13.4 2.8 -9.1 13.6 -25.7 22.5 -34.6 5 -5.1 7 -6.3 12.2 -7.8 6.8 -1.8 20.1 -2.2 26.8 -0.8 2.2 0.5 6.6 1.2 9.8 1.6 l5.8 0.7 10.7 -11 c13.6 -13.8 25.4 -21.7 41.2 -27.2 3.6 -1.3 7 -2.7 7.5 -3.1 0.6 -0.4 3.7 -1.2 7 -1.9 3.3 -0.6 8.3 -1.8 11 -2.5 2.8 -0.7 7.9 -1.6 11.5 -2 18.3 -1.7 61.3 0.3 63.5 2.9 0.6 0.7 3.6 1.5 6.7 1.9 3.6 0.3 8.7 2 14 4.5 4.6 2.2 11.5 5.2 15.3 6.7 23.9 9.5 44.3 23.9 56.9 40.4 7.6 9.9 8.7 13.1 14 41.6 5.3 28.3 6.2 31 11.2 33.1 5 2.1 13.2 10 15.9 15.4 4.5 8.9 5.9 15.7 5.8 28.5 0 12.4 -1.6 20.9 -6.8 37.6 -5.3 17.1 -11.2 25.3 -21.8 30.2 -5.4 2.6 -6.1 2.7 -23.9 2.6 -15.5 0 -18.7 -0.3 -20.8 -1.7z m38.8 -2.8 c7.5 -2.1 12.7 -7.1 17.3 -16.9 9.4 -19.9 14.2 -48.5 10.8 -64.7 -1.6 -7.8 -6.6 -16.3 -12.2 -21.3 -5.1 -4.4 -28.1 -16.5 -31.4 -16.5 -1.1 0 -3.7 1.9 -5.9 4.3 -11 11.5 -15.1 19.9 -16.5 33.2 -1.5 15 0.3 48.2 3.1 57 0.5 1.7 1.2 4.6 1.5 6.4 1.1 6.4 6.9 18.5 9.6 19.9 2.9 1.5 15.8 0.7 23.7 -1.4z m-28.8 1.2 c0 -0.2 -1.7 -5 -3.8 -10.7 -5.8 -15.5 -8.3 -32.6 -8.1 -55.6 0 -13.2 0.7 -18.8 3.1 -28.3 1.8 -6.9 3.9 -11 9.4 -18.2 2.4 -3.1 4.4 -6.3 4.4 -7.1 0 -3.9 -11.7 -2.3 -17.7 2.5 -4.6 3.6 -4.7 3.7 -7.7 11.8 -5 13.3 -7.4 26.9 -9.1 50.5 -0.6 9.7 1.5 30.7 3.6 34.7 2.2 4.3 12.3 16 15.8 18.4 2.9 2 10.1 3.4 10.1 2z m-277.6 -79.8 c1.6 -17 2.4 -22.7 3.8 -25.8 0.9 -1.9 2.1 -5.2 2.8 -7.2 3.9 -12.6 18.3 -36.7 32.3 -53.9 11.6 -14.4 13.9 -17.7 13.5 -19.7 -0.7 -3.6 -4.3 -2.2 -13.8 5.3 -12.4 9.9 -24.2 21.5 -29.2 28.8 -8.1 11.9 -15.1 30.3 -19.8 52.7 -2.9 13.7 -2.8 15 2.3 20.4 5.9 6.2 7.4 6 8.1 -0.6z m-13.6 -12 c0.6 -1.8 1.3 -5.1 1.6 -7.3 3.7 -23.6 13.5 -48 24.8 -61.4 3.5 -4.1 11 -11.6 16.8 -16.6 7.8 -6.8 10.5 -9.8 10.5 -11.5 0 -1.7 -0.7 -2.6 -2.5 -3.1 -4 -1.1 -29.6 -1 -32.6 0.1 -4.3 1.7 -16.2 13.9 -20.9 21.5 -3.8 6.1 -8.3 15.1 -13.9 27.7 -2.3 5.1 -3.3 14.2 -2.4 20.4 1.3 8.7 13.7 33.4 16.8 33.4 0.5 0 1.3 -1.5 1.8 -3.2z m323.2 -28.7 c0 -5.6 -5.3 -31.5 -10.1 -49.6 -2.3 -8.3 -15.4 -23.9 -29.1 -34.4 -15 -11.6 -48.8 -25.3 -48.8 -19.8 0 2.2 3.6 4.4 8.5 5.2 5.3 1 18.8 7.8 24.5 12.3 12.7 10.3 19.5 20.4 26 38.7 5.3 15.2 6.3 19.6 6.9 31.4 l0.6 11.5 9 3.2 c10.7 3.8 12.5 4.1 12.5 1.5z m-237 -82.7 c13.3 -10.9 17 -13.5 26.7 -18.3 8.7 -4.4 15.5 -6.3 28.8 -8.2 9.3 -1.3 11.5 -2.1 11.5 -4.6 0 -5.1 -20.5 -1.1 -43.5 8.4 -13.6 5.6 -37.5 24.2 -37.5 29.1 0 3.9 3.2 2.5 14 -6.4z"/>
  <path d="M405.2 266.1 c-7.3 -1.9 -9.9 -6.6 -11.2 -20.3 -2.6 -27.3 4.1 -46.8 16.2 -46.8 5.4 0 9.5 2.1 16.5 8.5 l5.8 5.2 -0.2 6.9 c-0.3 9.1 -6.6 33.8 -9.7 37.9 -0.9 1.1 -1.6 2.7 -1.6 3.6 0 4 -8.7 6.7 -15.8 5z m11.3 -4 c0 -0.8 -2 -2 -4.6 -2.7 -2.5 -0.8 -5.2 -2.2 -6 -3.1 -4.6 -5.5 -6.9 -28.3 -3.4 -33.6 1.9 -3 1.7 -7.1 -0.5 -7.4 -0.8 -0.2 -2.5 1.3 -3.7 3.2 -2.1 3.2 -2.3 4.7 -2.3 16.7 0 12.1 0.2 13.8 2.6 18.8 4 8.7 5.8 10.1 12.4 9.8 3.9 -0.2 5.5 -0.7 5.5 -1.7z m1.3 -9.4 c2.4 -2.6 5.3 -10.3 8.2 -22.1 l2 -7.9 -2.6 -3.4 c-1.4 -1.9 -4.4 -4.6 -6.6 -6 l-4 -2.7 -2.9 3.2 c-3.7 4.2 -6.1 12.5 -6.2 22.1 -0.1 8.3 1.3 13.1 4.6 16.9 2.6 2.8 4.8 2.8 7.5 -0.1z"/>
 </g>
 <g fill="#ffffff">
  <path d="M408.6 256.9 c-4.6 -3.6 -5.9 -8.2 -5.9 -20.4 -0.1 -24.1 8 -34.3 20.1 -25.5 2.3 1.6 5.3 4.7 6.7 6.9 l2.6 3.8 -2.1 8.4 c-4.1 16.3 -7 23.7 -10.1 26.4 -3.7 3 -7.7 3.2 -11.3 0.4z"/>
 </g>
</svg>