<?xml version="1.0" encoding="utf-8"?>
<!DOCTYPE svg PUBLIC "-//W3C//DTD SVG 20010904//EN" "http://www.w3.org/TR/2001/REC-SVG-20010904/DTD/svg10.dtd">
<svg version="1.0" xmlns="http://www.w3.org/2000/svg" width="500px" height="500px" viewBox="0 0 500 500" preserveAspectRatio="xMidYMid meet">
 <g fill="#000000">
  <path d="M259.8 293.3 c-2.1 -0.2 -3.8 -0.8 -3.8 -1.3 0 -0.4 -1.8 -1.1 -4 -1.5 -2.2 -0.4 -4 -1.1 -4 -1.5 0 -0.5 -1.4 -1.1 -3 -1.5 -3.1 -0.7 -12 -8.2 -12 -10.2 0 -0.6 -0.5 -1.3 -1.1 -1.5 -0.5 -0.2 -1.3 -2.2 -1.6 -4.6 -0.3 -2.3 -1 -4.2 -1.4 -4.2 -1.2 0 -1.2 -11.7 0 -12.2 0.4 -0.1 1.1 -3.1 1.5 -6.5 l0.7 -6.1 -7.6 -0.7 c-4.1 -0.4 -7.5 -1.1 -7.5 -1.6 0 -0.5 -1 -0.9 -2.3 -0.9 -2.1 0 -2.5 0.7 -3.6 6.5 -0.7 3.6 -1.7 6.5 -2.1 6.5 -0.4 0 -1.1 1.2 -1.4 2.6 -0.8 3 -1.3 3.7 -8.6 11.2 -5.5 5.8 -9.4 8.2 -13 8.2 -1.1 0 -2 0.5 -2 1 0 0.6 -4.5 1 -11.5 1 -6.5 0 -11.5 -0.4 -11.5 -0.9 0 -0.6 -2.1 -1.3 -4.7 -1.7 -3.9 -0.6 -5.5 -1.5 -10.2 -6.4 -3.1 -3.2 -6.1 -6.4 -6.7 -7.2 -1.5 -1.9 -3.4 -10 -3.4 -14.2 0 -2 -0.4 -3.6 -1 -3.6 -0.6 0 -1 -11.3 -1 -31.9 0 -28.2 0.2 -32 1.6 -32.5 0.9 -0.3 1.8 -0.6 2 -0.6 0.2 0 0.4 2.5 0.4 5.5 0 3 0.4 5.5 1 5.5 0.5 0 1.1 4.8 1.2 11.2 0.3 11.1 0.3 11.1 2.8 11.4 5.5 0.5 40 0.5 40.8 0 0.9 -0.6 8.3 0.5 15.9 2.2 4.9 1.1 10.8 6.5 11.9 10.7 0.8 3.4 2 4.5 5.1 4.5 1.2 0 2.3 0.4 2.5 1 0.2 0.5 2.3 1.2 4.8 1.4 2.5 0.3 6.2 0.8 8.3 1.2 2.5 0.4 3.7 0.3 3.7 -0.5 0 -0.6 0.5 -1.1 1 -1.1 1.3 0 1.3 3.7 0 4.2 -1.6 0.5 -1.9 33.6 -0.3 34.6 0.6 0.4 1.5 2 1.8 3.5 0.4 1.6 1.4 3.1 2.1 3.4 0.8 0.3 1.4 1.1 1.4 1.7 0 0.7 1.5 2 3.3 2.9 1.7 1 4.8 2.7 6.7 3.8 1.9 1.1 5.8 2.3 8.7 2.6 2.9 0.3 5.3 1 5.3 1.4 0 0.5 3.8 0.9 8.5 0.9 4.7 0 8.5 -0.4 8.5 -0.9 0 -0.5 1.6 -1.2 3.5 -1.5 1.9 -0.4 3.5 -1.1 3.5 -1.6 0 -0.6 0.5 -1 1.2 -1 1.4 0 9.8 -8.6 9.8 -10.1 0 -0.5 0.6 -1.2 1.4 -1.5 0.8 -0.3 2 -2.8 2.7 -5.5 0.7 -2.7 1.6 -4.9 2 -4.9 0.4 0 1.1 -1.5 1.4 -3.2 0.4 -1.8 1.2 -3.6 1.8 -3.9 0.5 -0.4 1 -3.8 1.1 -7.5 0.1 -8.1 -1.4 -10.5 -8.2 -13.5 -5 -2.2 -5.2 -2.2 -5.2 -1 0 0.5 1.5 1.2 3.4 1.5 1.9 0.4 3.7 1.4 4 2.2 0.5 1.3 0.1 1.5 -1.6 1.1 -8.1 -1.9 -18.4 -3.7 -20.9 -3.7 -3.3 0 -3.7 -0.7 -1.2 -2.5 1.5 -1.1 1.2 -1.3 -2.3 -1.8 -2.1 -0.4 -8.5 -0.9 -14.1 -1.3 -5.7 -0.3 -10.3 -0.9 -10.3 -1.3 0 -0.7 25.1 -0.5 33.6 0.3 9.8 1 17.6 3.4 21.8 6.8 2.2 1.8 4.1 2.7 4.3 2.1 0.2 -0.6 1.5 -2.4 2.9 -4 1.3 -1.5 2.4 -3.1 2.4 -3.5 0 -0.4 0.9 -0.9 1.9 -1.3 1 -0.3 2.4 -1.8 3 -3.3 0.6 -1.5 2.7 -4 4.6 -5.5 1.9 -1.5 3.5 -3.4 3.5 -4.1 0 -0.7 1.6 -2.5 3.5 -4 1.9 -1.6 3.5 -3.4 3.5 -4.1 0 -0.7 1.5 -2.9 3.4 -4.9 3.6 -3.7 6.6 -4 6.6 -0.6 0 1 0.3 2.5 0.6 3.4 0.4 0.9 -1 3.1 -3.5 5.7 -2.3 2.4 -4.1 4.6 -4.1 5.1 0 0.4 -1.5 2.3 -3.2 4.2 -6.5 7 -8.8 9.7 -9.9 11.8 -0.7 1.3 -2.5 3.4 -4.1 4.8 -1.5 1.3 -2.8 2.9 -2.8 3.5 0 0.6 -1.2 2.2 -2.7 3.6 -3.6 3.2 -5.3 6.3 -5.3 9.4 0 1.4 -0.4 2.5 -0.9 2.5 -0.5 0 -1.1 1.8 -1.5 4 -0.3 2.2 -1 4 -1.4 4 -0.5 0 -1.4 2.3 -2.1 5 -0.7 2.8 -1.7 5 -2.2 5 -0.5 0 -0.9 0.7 -0.9 1.5 0 0.9 -0.7 1.8 -1.5 2.1 -0.8 0.4 -1.5 1.2 -1.5 1.9 0 1.7 -7.6 9.2 -12.5 12.3 -3.6 2.3 -5.1 2.6 -15 2.8 -6 0.1 -12.7 0 -14.7 -0.3z m-74.1 -24.5 c1.8 -0.7 3.3 -1.6 3.3 -2 0 -0.4 0.6 -0.8 1.3 -0.8 0.7 0 2 -0.8 2.9 -1.7 0.9 -1 2.8 -2.9 4.2 -4.2 1.4 -1.3 2.6 -2.9 2.6 -3.7 0 -0.8 0.4 -1.4 0.9 -1.4 0.5 0 1.2 -1.2 1.5 -2.6 0.4 -1.5 1.3 -3.2 2 -4 0.8 -0.7 1.7 -3.3 2 -5.9 0.4 -2.5 1.1 -4.5 1.7 -4.5 1.6 0 1.1 -12 -0.6 -13.6 -0.8 -0.9 -1.5 -2.3 -1.5 -3.3 0 -1.6 -6.7 -5.8 -7.7 -4.7 -0.2 0.2 0.4 0.7 1.5 1 1.1 0.4 2.3 1.4 2.6 2.3 0.5 1.2 0.1 1.4 -1.6 1 -4.6 -1.1 -11.4 -2.7 -13.5 -3.2 -2.5 -0.6 -3.2 -3.5 -0.8 -3.5 0.8 0 1.5 -0.3 1.5 -0.7 0 -0.7 -48 -0.6 -48.7 0.1 -0.2 0.1 -0.7 2.5 -1.2 5.2 -1.3 6.7 1.9 33.4 4 33.4 0.4 0 1.1 1.6 1.5 3.5 0.3 1.9 1 3.5 1.5 3.5 0.5 0 0.9 0.6 0.9 1.3 0 2.7 7.6 7.3 14.3 8.7 6.5 1.2 21.7 1.1 25.4 -0.2z"/>
  <path d="M247.2 280.5 c-1.1 -1.3 -0.9 -1.5 1.3 -1.5 1.6 0 2.5 0.6 2.5 1.5 0 1.9 -2.1 1.9 -3.8 0z"/>
  <path d="M238.5 226.3 c0.8 -0.8 1.9 -1.1 2.5 -0.8 1.7 1.1 1.1 2 -1.5 2.1 -2.1 0.2 -2.2 0 -1 -1.3z"/>
 </g>
 <g fill="#ffffff">
  <path d="M252.1 282.9 c-1.8 -0.6 -3.8 -1.4 -4.5 -2 -0.6 -0.5 -2.2 -1.8 -3.6 -2.9 -2 -1.6 -2.2 -1.9 -0.7 -2 0.9 0 1.7 -0.4 1.7 -0.8 0 -0.5 1.8 -1.4 4 -2.1 2.2 -0.6 4 -1.6 4 -2.1 0 -0.4 1.4 -1.1 3 -1.5 1.7 -0.4 3 -1 3 -1.4 0 -0.4 1.8 -1.3 4 -2 5.8 -1.7 5 -6.1 -1.4 -7.7 -1.4 -0.3 -2.6 -1 -2.6 -1.4 0 -0.5 -1.6 -1.4 -3.5 -2.1 -1.9 -0.7 -3.5 -1.6 -3.5 -2 0 -1.8 1.3 -3.9 2.4 -3.9 0.7 0 2.1 -0.7 3.1 -1.5 3.9 -3 9.6 -6.5 10.5 -6.5 0.6 0 1 -0.5 1 -1 0 -0.6 1.1 -1.5 2.5 -2 1.4 -0.5 2.5 -1.4 2.5 -2 0 -0.5 0.6 -1 1.3 -1 0.8 0 2.5 -0.9 3.8 -2.1 2.1 -1.9 3.2 -2 9.3 -1.5 3.8 0.4 7.4 1 8 1.5 0.6 0.4 2.4 1.1 4 1.5 2.9 0.7 5.8 3.4 5 4.7 -0.2 0.4 -3 1.9 -6.1 3.5 -3.2 1.6 -6 3.2 -6.3 3.5 -0.3 0.3 -1.6 1 -3 1.4 -1.4 0.4 -3.6 1.6 -4.9 2.6 -1.3 1.1 -3 1.9 -3.7 1.9 -0.8 0 -1.4 0.4 -1.4 0.9 0 0.5 -1.2 1.2 -2.6 1.5 -3 0.8 -2.9 3.3 0.1 5 1.1 0.6 2.2 1.4 2.5 1.7 0.3 0.3 1.5 1.1 2.7 1.8 2.2 1.1 2.2 1.3 0.7 3.6 -0.9 1.4 -2.2 2.5 -2.9 2.5 -0.6 0 -2 0.9 -3 2 -1 1.1 -2.2 2 -2.7 2 -0.8 0 -1.3 0.4 -7.4 5.8 -6.2 5.4 -8.5 6 -15.3 4.1z"/>
  <path d="M151.9 263.3 c-5.5 -4.5 -6.4 -7.1 -2.9 -8 1.1 -0.3 2 -0.8 2 -1.2 0 -0.4 1.6 -1.3 3.5 -2.1 1.9 -0.8 3.5 -1.7 3.5 -2.2 0 -0.4 0.7 -0.8 1.5 -0.8 0.9 0 1.8 -0.6 2.1 -1.4 0.3 -0.8 1.9 -1.8 3.5 -2.1 3.1 -0.7 4.3 -4.5 1.3 -4.5 -1.4 0 -7.5 -2.4 -13.1 -5.2 l-2.2 -1.1 2 -1.8 c1.1 -1 3.3 -2.1 4.9 -2.4 1.6 -0.3 3.1 -1.3 3.4 -2.1 0.3 -0.8 1.2 -1.4 2.1 -1.4 0.8 0 1.5 -0.4 1.5 -0.9 0 -0.5 1.2 -1.2 2.7 -1.6 1.4 -0.3 3.8 -1.5 5.1 -2.6 1.4 -1 3.1 -1.9 3.8 -1.9 0.8 0 1.4 -0.3 1.4 -0.8 0 -0.4 1.5 -1.3 3.3 -2.1 1.7 -0.8 3.5 -1.9 3.9 -2.4 0.7 -1.1 10.4 0.7 14.3 2.6 4.5 2.3 3.2 4.7 -3.2 6.2 -1.8 0.3 -3.3 1 -3.3 1.5 0 0.4 -1.3 1 -3 1.3 -1.6 0.4 -5 1.6 -7.4 2.7 -2.5 1.1 -5.2 2 -6 2 -0.9 0 -1.6 0.4 -1.6 0.9 0 0.5 -0.9 1.1 -2 1.4 -3.9 1 -2.2 3.5 3.3 4.7 2.8 0.7 5.7 1.6 6.2 2 0.6 0.4 2.9 1.1 5.3 1.5 2.6 0.4 4.2 1.2 4.2 2.1 0 0.8 -0.7 1.4 -1.5 1.4 -0.8 0 -1.5 0.5 -1.5 1 0 0.6 -1.1 1.5 -2.5 2 -1.4 0.5 -2.5 1.4 -2.5 2 0 0.5 -0.6 1 -1.4 1 -0.8 0 -2.1 0.6 -2.8 1.3 -0.7 0.7 -3.5 2.6 -6.3 4.1 -2.7 1.6 -5.2 3.2 -5.5 3.6 -0.3 0.3 -2.1 1.2 -4 2 -1.9 0.8 -3.7 1.7 -4 2.1 -1.6 2.1 -5 1.8 -8.1 -0.8z"/>
 </g>
</svg>