<?xml version="1.0" encoding="utf-8"?>
<!DOCTYPE svg PUBLIC "-//W3C//DTD SVG 20010904//EN" "http://www.w3.org/TR/2001/REC-SVG-20010904/DTD/svg10.dtd">
<svg version="1.0" xmlns="http://www.w3.org/2000/svg" width="500px" height="500px" viewBox="0 0 500 500" preserveAspectRatio="xMidYMid meet">
 <g fill="#000000">
  <path d="M125.1 262.2 c-1.3 -0.2 -1.9 -0.7 -1.4 -1 0.6 -0.4 -1 -0.8 -3.5 -0.8 -6 -0.2 -6.7 -0.4 -13.6 -3.9 -13.7 -6.9 -18.1 -18.2 -18.1 -46 0 -19 1.8 -26.8 8.6 -37.9 3.2 -5.3 12.6 -13.6 15.3 -13.6 0.9 0 1.6 -0.4 1.6 -0.9 0 -0.4 1.2 -0.7 2.8 -0.5 1.5 0.2 1.9 0.1 0.9 -0.2 -1.6 -0.5 -1.6 -0.7 0.3 -3.4 1.1 -1.6 2.7 -4.6 3.4 -6.7 0.8 -2.1 2.7 -6.3 4.2 -9.3 1.4 -3 4.2 -9.1 6.1 -13.4 3.8 -8.9 9.9 -18.4 14.7 -22.9 4.3 -4.1 15.6 -11.4 21.9 -14.1 9.3 -4.2 24 -8.5 34.2 -10.1 5.5 -0.9 12.2 -2.3 14.9 -3.2 3.2 -1 7 -1.4 11.2 -1 3.4 0.2 6.6 0.1 7.1 -0.3 0.8 -0.8 22.7 1.1 28.8 2.5 14.8 3.3 28.2 7.1 34 9.8 26.4 12 41.9 25 53 44.6 1.9 3.5 3.3 6.7 3 7.1 -0.9 1.5 1 2 9.6 2.6 10.8 0.7 21.3 2.9 26.7 5.5 7.2 3.5 12.4 11.4 18.7 28.4 5.3 13.9 7.2 35.3 3.9 41.8 -3.8 7.4 -17.8 23.7 -20.3 23.7 -0.5 0 -1.2 0.9 -1.6 1.9 -0.7 2.4 -12.2 11.1 -14.7 11.1 -3 0 -3.9 -3.3 -2.7 -9.2 1.5 -6.6 0.6 -26.1 -1.6 -34 -1.3 -5 -4.1 -12.5 -7.5 -20.3 -0.4 -1.1 -3.4 -7.2 -6.5 -13.5 -5.4 -11.1 -7.4 -14.8 -14.4 -27.3 -1.8 -3.3 -3.4 -7.4 -3.6 -9.3 -0.4 -4.3 -5.6 -11.6 -16.4 -22.7 -10.3 -10.5 -15.4 -14 -25.6 -17.2 -9 -2.9 -13.5 -3.6 -46.5 -6.9 -13.5 -1.4 -27.9 -3 -32 -3.6 -15.8 -2.2 -26.4 -0.6 -38 5.7 -5.9 3.2 -12 7.3 -10.8 7.3 0.2 0 -2.4 3 -5.9 6.8 -8 8.5 -12.3 15.7 -18.4 30.7 -5.1 12.8 -6.6 14.6 -2.3 3 1.4 -3.8 3.3 -9.2 4.3 -12 1.8 -4.8 8 -14.9 12.5 -20.3 6.4 -7.7 13.9 -13.5 25.7 -19.9 5.4 -3 16.4 -5.1 22.9 -4.6 3.2 0.3 6.4 -2.5 4.9 -4.4 -2 -2.4 -13.4 -0.9 -32.8 4.2 -11.5 3 -26.7 11.5 -36.3 20.4 -5.6 5.2 -9.2 11.4 -20.1 35.1 -3.7 8.2 -5.6 14.7 -3.9 13.6 0.6 -0.3 1.3 -0.2 1.7 0.4 0.4 0.7 1.2 0.7 2.5 0 1 -0.5 4 -1 6.7 -1.1 2.6 -0.1 5.9 -0.4 7.3 -0.8 1.4 -0.5 4 -0.3 6 0.4 1.9 0.7 6 1.8 9.1 2.4 4.5 1 6.4 2 9.2 5 2 2.2 3.3 4.2 3 4.5 -0.4 0.3 -0.1 0.6 0.5 0.6 0.7 0 1.2 0.9 1.2 2 0 1 0.6 3.9 1.4 6.2 2.8 8.5 2.8 32.6 0.1 45.8 -2.3 11.3 -3.4 14.4 -7.4 21.3 -3.4 5.8 -6.2 9.1 -11.4 13.2 -3.8 3 -7.3 5.5 -7.9 5.5 -0.6 0 -1.6 0.6 -2.2 1.4 -1.1 1.4 -11.4 2.5 -16.5 1.8z m19.2 -5.9 c4.8 -2.4 14 -12.3 16.2 -17.3 1.1 -2.5 2.2 -4.7 2.6 -5 1.2 -1 4.4 -15.9 5.6 -26.4 1.1 -9.6 0.4 -32.3 -1.2 -38.5 -1.6 -6.5 -6.4 -11.5 -12.8 -13.2 -5.2 -1.4 -6.6 -0.1 -4.8 4.4 5.2 12.8 6.1 16.4 6.1 24.8 0 4.9 -0.9 13 -2 18.4 -1.1 5.4 -2.2 10.7 -2.4 11.9 -0.3 1.1 -1.3 4.6 -2.4 7.8 -1.1 3.1 -1.8 5.9 -1.5 6.2 0.4 0.3 0.2 0.6 -0.3 0.6 -0.5 0 -1 1 -1.1 2.2 -0.2 2.6 -5.2 12.2 -10.3 19.8 -2 3 -3.5 6 -3.3 6.6 0.5 1.4 7 0.1 11.6 -2.3z m-12.7 -1.5 c0.9 -1.8 2.7 -4.6 4 -6.3 1.2 -1.6 2.6 -4.2 2.9 -5.7 0.4 -1.6 1.1 -2.8 1.5 -2.8 0.7 0 3.9 -5.8 4.2 -7.7 0.1 -0.5 1.2 -3.6 2.4 -7 1.3 -3.5 2 -6.3 1.7 -6.3 -0.3 0 -0.1 -0.6 0.4 -1.2 2.5 -3.2 6.4 -24 6.2 -32.7 -0.2 -8.5 -2 -14.6 -7 -23.9 l-3.4 -6.3 -6 0.6 c-7.7 0.9 -19.6 4 -24.7 6.6 -9.5 4.8 -17.3 15.7 -19.9 27.7 -1.2 6 -1.7 28 -0.7 36.2 1.8 14.7 4.7 21.7 10.9 26.1 3.5 2.5 14.1 5.3 21.1 5.7 4.4 0.3 4.8 0.1 6.4 -3z m249.6 -8.5 c5.8 -4.9 6.3 -5.5 6.8 -10.7 1.1 -10.9 -0.7 -32.7 -3.5 -42.9 -3 -11.3 -4.8 -16 -5.8 -15.2 -0.4 0.3 -0.5 0.2 -0.3 -0.1 1.2 -1.6 -21 -32.7 -24.1 -33.8 -2 -0.8 -4.3 0.4 -4.3 2.3 0 1.8 14.9 32.2 16.3 33.2 0.5 0.3 0.8 0.8 0.6 1 -0.4 0.7 3.4 11.3 5.8 16.2 1.4 2.7 2.2 5.1 1.9 5.4 -0.3 0.4 -0.2 1.1 0.3 1.7 3.4 4.2 4.6 19.5 2.5 33.8 -0.8 5.4 -1.4 10.2 -1.4 10.8 0 1.7 1.7 1.1 5.2 -1.7z m29.8 -31.7 c2.6 -5.8 2.6 -13.4 0 -25.7 -2.9 -13.5 -5.7 -21.5 -10.3 -28.9 -6.9 -11.2 -8.5 -12.2 -23.8 -15.5 -9.3 -2 -15.2 -1.7 -15.7 0.7 -0.2 1 3 6.3 7.1 12 8.7 11.9 12.8 19.5 15.7 28.7 1.1 3.6 2.5 8 3.1 9.8 1.4 4.4 2.1 13.7 2.9 41.3 0.1 2.4 18.7 -17.5 21 -22.4z m-59.6 -77.4 c-0.6 -0.4 -1.4 -1.8 -1.7 -3.2 -2 -8.1 -20.4 -27.5 -33.9 -35.7 -10.7 -6.6 -23.5 -12.5 -26.2 -12.1 -2.9 0.4 -2.7 3.9 0.4 5.5 1.4 0.7 6.3 3.1 11 5.2 17.5 8.2 23.6 13 35.8 28.5 6.9 8.7 11.1 12.6 13.5 12.6 1.3 0 1.7 -0.3 1.1 -0.8z"/>
  <path d="M107.5 237.8 c-2.5 -0.9 -5.3 -3.6 -4.7 -4.5 0.1 -0.2 -0.6 -2.2 -1.4 -4.5 -0.9 -2.7 -1.6 -9 -1.8 -16.8 -0.5 -16.4 0.1 -20.4 2.9 -23.2 3.5 -3.5 11.3 -7.1 16.5 -7.6 5.6 -0.5 9.3 2.1 11.5 8.3 3.7 10.7 -2.3 40.5 -9.6 47.1 -2.3 2 -9.4 2.7 -13.4 1.2z m8.1 -1.8 c5.2 -2 9.6 -9.2 11 -18 1.1 -7 1 -8.5 -0.5 -8.5 -0.8 0 -2.4 3 -3.9 7.5 -1.3 4.1 -3.5 9.1 -4.8 11.2 -2.1 3.3 -2.9 3.7 -7 4 -5.2 0.3 -6.9 2.3 -3.2 3.7 3.1 1.3 5.1 1.3 8.4 0.1z m-1.8 -11.6 c7.3 -8.8 8.7 -30.8 2.1 -32.9 -2.1 -0.7 -8.6 2.4 -11.3 5.4 -1.7 1.9 -1.8 3.2 -1.3 13 0.6 12.8 2.5 17.5 6.9 18 0.3 0.1 2 -1.5 3.6 -3.5z m14.5 -21.3 c0.7 -2.9 -0.4 -7.1 -1.8 -7.1 -1.8 0 -2.8 3.5 -2.1 6.6 0.8 2.9 3.2 3.2 3.9 0.5z"/>
 </g>
 <g fill="#ffffff">
  <path d="M105.4 230.2 c-4.2 -3.3 -5.4 -9.1 -5.5 -25.5 -0.1 -10.2 0.6 -11.4 8.3 -15.3 5.3 -2.7 6.7 -2.9 10.2 -1.3 3.6 1.7 5.1 6.3 5 15.4 -0.2 11.1 -2.8 19.8 -7.4 24.6 -4.1 4.3 -7.2 4.9 -10.6 2.1z"/>
 </g>
</svg>