<?xml version="1.0" encoding="utf-8"?>
<!DOCTYPE svg PUBLIC "-//W3C//DTD SVG 20010904//EN" "http://www.w3.org/TR/2001/REC-SVG-20010904/DTD/svg10.dtd">
<svg version="1.0" xmlns="http://www.w3.org/2000/svg" width="500px" height="500px" viewBox="0 0 500 500" preserveAspectRatio="xMidYMid meet">
 <g fill="#000000">
  <path d="M125.6 269.1 c-0.4 -0.6 -2.4 -1.1 -4.4 -1.1 -4.6 -0.1 -13.6 -3.7 -18.6 -7.5 -4.5 -3.4 -8.3 -9.6 -10.2 -16.7 -2.1 -7.6 -2.9 -32.4 -1.4 -43.1 2.2 -15.4 10.3 -28.5 21.4 -34.3 6.4 -3.3 6.1 -3 16.1 -24.9 11.8 -25.8 16.7 -32.5 30.1 -41.1 11.9 -7.6 24.5 -12.1 48.3 -17 25.6 -5.4 45.9 -4.9 71.9 1.7 36.2 9.1 63 27.7 75 51.9 2 4.1 4 7.7 4.5 7.8 0.4 0.2 0.5 0.7 0.2 1.2 -0.3 0.5 2.1 1.1 5.2 1.5 10.1 1.1 21.6 4.4 25.7 7.3 7 4.9 15.6 22.6 19.2 39.5 2.2 10.4 1.9 25.8 -0.6 30.7 -2.5 4.9 -13.2 17.8 -16.9 20.5 -1.5 1.1 -4.1 3.5 -5.6 5.3 -5.7 6.8 -16.3 11.9 -16.6 8 0 -0.7 -0.2 -9.6 -0.3 -19.8 -0.2 -17.2 -0.4 -19 -2.9 -26.3 -3.9 -11.1 -13.5 -31.8 -22.4 -48 -4.1 -7.6 -7.2 -14.4 -6.9 -15.2 0.3 -0.8 1.7 -1.5 3.1 -1.5 6 0 0.2 -10.3 -14.3 -24.9 -11.5 -11.6 -17.5 -15.3 -29.7 -18.5 -10.4 -2.7 -77.8 -9.8 -88.5 -9.4 -15.5 0.7 -28.1 7 -38.7 19.3 -8.4 9.7 -13.2 17.8 -19 31.5 -5.5 13.1 -6.9 12.7 -2.2 -0.6 7.5 -21.3 17.3 -34.4 33.7 -44.9 9 -5.8 16.5 -8.4 26.2 -9.2 7.4 -0.6 10.5 -1.7 9.4 -3.4 -1.5 -2.6 -23.7 1.1 -37.6 6.1 -10.7 3.9 -22.9 11.4 -30.4 18.5 -5.6 5.4 -7.1 7.9 -14.2 22.5 -9.5 19.8 -11 23.9 -9.1 25.1 0.8 0.5 2.1 0.7 2.9 0.5 0.8 -0.3 4.7 -1 8.6 -1.6 6.3 -1 8 -0.9 15.4 1 11 2.8 13.6 4.3 16.9 9.5 4.3 6.7 5.6 14.7 5.6 33.5 -0.1 32.6 -6.9 49.2 -25.6 61.5 -6.4 4.3 -7.5 4.7 -14.8 5.2 -5.3 0.4 -8 0.2 -8.5 -0.6z m19.8 -6.3 c5.6 -2.9 14.2 -12.2 17.7 -19.4 8.1 -16.8 10.4 -59.5 3.7 -71.6 -2.4 -4.5 -8.6 -8.8 -12.5 -8.8 -3 0 -2.9 1 0.7 10.8 2.6 7.2 3 9.6 3 18.6 0 21.9 -7.5 48.2 -18.9 66 -1.7 2.8 -3.1 5.6 -3.1 6.3 0 1.7 3.8 0.9 9.4 -1.9z m-9.6 -5.7 c2.3 -3.8 4.2 -7.2 4.2 -7.5 0 -0.4 1.1 -2.3 2.5 -4.4 3.1 -4.7 10 -25.8 12.1 -37.1 1 -5.4 1.5 -11.9 1.2 -17.6 -0.3 -8.2 -0.8 -9.9 -4.8 -18.4 l-4.4 -9.3 -6.6 0.6 c-7.2 0.6 -17.7 3.4 -23.6 6.2 -5.8 2.7 -12.6 10.1 -16.3 17.5 -4 8.1 -5.6 20.5 -4.7 37.4 0.9 19.1 4.4 29.7 11.2 34.1 3.7 2.5 14.1 5.2 19.9 5.3 l5 0.1 4.3 -6.9z m243 -6.3 c2.8 -2.9 3.3 -4.4 3.8 -9.9 0.9 -9.2 -1.3 -30.5 -4.2 -41.8 -2.6 -10.1 -5.9 -16.2 -17.1 -31.9 -9.9 -13.8 -15.3 -18.5 -15.3 -13.3 0 1.1 3.6 9.2 8 17.9 4.4 8.8 9.1 19 10.5 22.8 1.4 3.8 4 10.5 5.7 14.9 2.7 7.1 3.1 9.2 3.2 19.5 0 6.3 -0.3 15 -0.7 19.3 -0.8 7.5 -0.8 7.8 1 6.9 1 -0.6 3.3 -2.6 5.1 -4.4z m15.1 -14.5 c12.3 -13.3 12.6 -13.9 12.5 -26.2 0 -13 -3.4 -26.4 -9.5 -38.1 -5.6 -10.8 -9.4 -14.4 -17.7 -17 -8.2 -2.6 -20.6 -3.8 -21.6 -2.1 -0.5 0.7 3.1 7 8.4 15.2 14.7 22.4 18.9 36.8 19 65.7 0 5.6 0.4 10.2 0.9 10.2 0.5 0 4.1 -3.4 8 -7.7z m-42.5 -94.5 c-2.4 -7.8 -20.6 -27.1 -33.1 -35.2 -13.2 -8.5 -28.3 -14.9 -28.3 -11.8 0.1 1.9 2.4 3.4 15.5 9.8 12.8 6.3 14.7 7.5 22.5 15.4 4.7 4.7 11.6 12 15.3 16.3 7 7.9 9.4 9.5 8.1 5.5z"/>
  <path d="M107.4 244.1 c-4.5 -2.7 -5.9 -9.8 -5.9 -29.3 0 -14.4 0.2 -15.9 2.1 -18.5 4.8 -6.3 19.4 -10.5 24.8 -7 1.3 0.9 3.2 3.7 4.1 6.2 4.6 11.8 -2.6 45.2 -10.6 49.2 -3.6 1.9 -10.9 1.6 -14.5 -0.6z m13 -3.6 c3.8 -3.5 7.2 -11.4 9.3 -21.7 1.2 -6.2 1.5 -9.5 0.8 -11.4 -2 -5.5 -3.2 -3.7 -4 5.7 -0.3 5 -1.3 11.1 -2 13.4 -1.7 5.8 -8.3 12.5 -12.3 12.5 -4 0 -6.2 0.9 -6.2 2.6 0 1 1.5 1.4 5.9 1.4 4.8 0 6.3 -0.4 8.5 -2.5z m-8.2 -8.6 c6.3 -3.4 8.8 -10.1 8.8 -23.3 0 -6 -0.3 -7.6 -2 -9.1 -1.9 -1.7 -2.1 -1.7 -6 0 -6.9 3.1 -7.3 3.9 -6.8 16.7 0.4 10.2 1.7 16.8 3.3 16.8 0.4 0 1.6 -0.5 2.7 -1.1z"/>
 </g>
 <g fill="#ffffff">
  <path d="M106.2 235.8 c-2.1 -2.7 -3.2 -9.8 -3.2 -21.9 0 -14 -0.1 -13.9 7.7 -17.8 5.4 -2.7 7.5 -2.7 11 0.3 2.7 2.3 2.8 2.6 2.5 12.2 -0.4 17.5 -2.5 22.9 -10 26.8 -3.7 1.9 -6.6 2 -8 0.4z"/>
 </g>
</svg>