<?xml version="1.0" encoding="utf-8"?>
<!DOCTYPE svg PUBLIC "-//W3C//DTD SVG 20010904//EN" "http://www.w3.org/TR/2001/REC-SVG-20010904/DTD/svg10.dtd">
<svg version="1.0" xmlns="http://www.w3.org/2000/svg" width="333px" height="333px" viewBox="0 0 333 333" preserveAspectRatio="xMidYMid meet">
 <g fill="#000000">
  <path d="M214 311.9 c-2.6 -1 -9.7 -5.6 -11.5 -7.4 -0.6 -0.5 -1.8 -2.3 -2.9 -3.9 -1.8 -2.8 -1.8 -2.8 1 -5.7 3.3 -3.4 6.2 -3.7 9.7 -0.9 3 2.4 7.5 2.6 8.3 0.5 0.4 -0.8 0.4 -2.5 0 -3.8 -0.9 -3.6 -10.4 -19.6 -15.7 -26.6 -2.7 -3.5 -4.9 -6.8 -4.9 -7.2 0 -1.2 6.2 -1.1 11.4 0.2 3.5 0.9 5.1 2.1 9 7.2 13.9 18.2 17.4 24.3 18.2 31.2 0.6 4.9 0.4 5.6 -2.5 9.2 -5.7 7.1 -13.4 9.8 -20.1 7.2z m4 -5.3 c0 -2.3 -0.9 -4.5 -2.5 -6.3 -2.3 -2.6 -2.4 -2.7 -2.5 -0.7 0 1.2 -0.9 3.3 -2.1 4.8 l-2.1 2.6 3.4 1.5 c5 2.2 5.8 1.9 5.8 -1.9z m10.8 -0.6 c6.6 -4.7 5.2 -8.8 -3.2 -9.7 -5.1 -0.6 -6.4 0.7 -4.2 3.9 0.9 1.2 1.6 3.7 1.6 5.5 0 1.8 0.4 3.3 0.8 3.3 0.5 0 2.8 -1.4 5 -3z m-19.8 -9 c0 -2.8 -3.8 -3.6 -6.2 -1.2 -2 1.9 -2 2 0.3 5.5 l2.3 3.5 1.8 -2.9 c1 -1.6 1.8 -3.8 1.8 -4.9z m23 -9 c-2.2 -4.3 -4.3 -4.9 -9.1 -2.7 -2.3 1 -2.6 1.6 -1.8 3.6 0.8 2 1.4 2.2 4.3 1.7 1.8 -0.4 4.4 -0.2 5.7 0.3 1.3 0.5 2.5 1 2.7 1 0.1 0.1 -0.7 -1.7 -1.8 -3.9z m-8.8 -9.8 l2.8 -0.4 -2 -2.9 c-1.9 -2.6 -2.3 -2.7 -5.3 -1.7 -4.5 1.5 -4.9 2.1 -3.1 4.7 1.1 1.5 2.1 2 3.3 1.5 0.9 -0.4 2.8 -0.9 4.3 -1.2z m-11.6 -10.7 c1 -0.8 2.7 -1.5 3.7 -1.5 2.1 0 2.2 -0.8 0.1 -3.1 -1.6 -1.8 -1.8 -1.8 -4.2 0.1 -1.3 1.1 -3.1 2 -3.8 2 -1.2 0 -1.2 0.4 -0.2 2 1.5 2.4 1.8 2.4 4.4 0.5z"/>
  <path d="M147.1 295.4 c-2.6 -3.3 -2.6 -4.1 -0.3 -7.9 2.1 -3.3 32.7 -34.5 33.9 -34.5 2.4 0.1 9.8 2.9 10.1 3.8 0.2 0.6 -1.1 2.7 -3 4.6 -1.8 1.9 -4.9 5.3 -6.8 7.6 -1.9 2.2 -4.6 5.4 -6 6.9 -4.8 5.4 -17.5 19.4 -18.8 20.8 -2.3 2.2 -6.8 1.6 -9.1 -1.3z m6.4 -0.4 c0.8 -1.3 -3.4 -7.2 -4.6 -6.5 -1.4 0.9 -1.1 4.2 0.7 5.9 1.8 1.8 3 2 3.9 0.6z m7.5 -9.7 c0 -0.7 -1 -2.1 -2.2 -3.2 l-2.1 -2 -1.9 2.2 c-1.6 1.8 -1.7 2.3 -0.5 2.5 0.8 0.2 2 1.4 2.8 2.8 1.2 2.4 1.4 2.4 2.6 0.8 0.7 -1 1.3 -2.4 1.3 -3.1z m9.1 -11.6 c-1.3 -3.4 -3.1 -3.4 -6.1 -0.2 l-2.3 2.5 2.3 2.5 2.4 2.6 2.3 -2.4 c2 -2 2.2 -2.7 1.4 -5z m9.5 -6.4 l2.7 -2.7 -2.9 -2.3 -2.9 -2.3 -2.6 2.8 -2.6 2.7 2.1 2.1 c2.8 2.9 3.1 2.9 6.2 -0.3z m8.9 -10.3 c-0.3 -0.4 -2.1 -1 -4 -1.2 l-3.5 -0.4 2.7 2.2 c2 1.6 3.2 1.9 4 1.2 0.7 -0.6 1.1 -1.4 0.8 -1.8z"/>
 </g>
 <g fill="#ffffff">
  <path d="M219 306.3 c0 -2.1 -0.8 -4.5 -1.7 -5.6 -1.7 -1.8 -1.7 -1.9 0.7 -1.6 1.9 0.3 2.6 1.2 3.3 4.2 1 4 0.4 6.7 -1.3 6.7 -0.5 0 -1 -1.7 -1 -3.7z"/>
  <path d="M207.2 305.5 c0.2 -0.5 1.1 -2.5 1.8 -4.2 0.8 -1.8 1.7 -3.3 2.1 -3.3 1.3 0 -0.4 5 -2.4 6.7 -1.1 1 -1.8 1.4 -1.5 0.8z"/>
  <path d="M232 296 c-0.8 -0.5 -3.4 -1 -5.8 -1 -3 0 -4.2 -0.4 -4 -1.2 0.6 -1.8 7.9 -2.2 10.2 -0.5 2.2 1.6 1.9 4.1 -0.4 2.7z"/>
  <path d="M153.2 289.4 c-1.2 -1.5 -2 -2.9 -1.8 -3.2 0.9 -0.8 5.6 2.8 5.6 4.3 0 2.2 -1.2 1.8 -3.8 -1.1z"/>
  <path d="M160.9 282.3 c-0.7 -1.6 -1.5 -3.1 -1.7 -3.5 -0.2 -0.5 0.2 -0.8 1 -0.8 1.2 0 4.8 4.8 4.8 6.4 0 1.7 -2.9 0.2 -4.1 -2.1z"/>
  <path d="M219 283 c0 -1.6 3 -3.9 5.1 -4 0.9 0 2.2 0.6 2.8 1.4 0.9 1.1 0.6 1.5 -1.6 1.8 -1.6 0.3 -3.6 0.9 -4.5 1.3 -1.2 0.4 -1.8 0.3 -1.8 -0.5z"/>
  <path d="M170.5 272 c-0.3 -1.1 -1.1 -2 -1.8 -2 -0.7 0 -0.8 -0.3 -0.1 -1 2.1 -2.1 6.4 1.6 4.8 4.1 -0.9 1.5 -2.2 1 -2.9 -1.1z"/>
  <path d="M211.5 272.1 c-1.7 -2.9 5.4 -6.1 7.7 -3.4 1.4 1.8 0.2 3.1 -3.9 3.9 -1.8 0.4 -3.3 0.2 -3.8 -0.5z"/>
  <path d="M205 262.6 c0 -1.7 3 -3 4.2 -1.8 0.5 0.5 -0.3 1.4 -1.7 2 -2 0.9 -2.5 0.9 -2.5 -0.2z"/>
  <path d="M180.8 260.6 c-1 -0.7 -1.8 -1.8 -1.8 -2.5 0 -2 2.7 -1.2 4.4 1.4 1.9 2.8 0.4 3.4 -2.6 1.1z"/>
 </g>
</svg>