<?xml version="1.0" encoding="utf-8"?>
<!DOCTYPE svg PUBLIC "-//W3C//DTD SVG 20010904//EN" "http://www.w3.org/TR/2001/REC-SVG-20010904/DTD/svg10.dtd">
<svg version="1.0" xmlns="http://www.w3.org/2000/svg" width="500px" height="500px" viewBox="0 0 500 500" preserveAspectRatio="xMidYMid meet">
 <g fill="#000000">
  <path d="M199.5 293.3 c-11.8 -1.5 -22.4 -11.8 -27.6 -26.9 -1.1 -3.2 -2.3 -6.6 -2.6 -7.4 -0.3 -0.8 -0.8 -2.8 -1 -4.5 -0.3 -1.6 -0.9 -3.4 -1.4 -3.9 -0.5 -0.6 -0.9 -3 -0.9 -5.5 0 -3 -0.8 -5.8 -2.2 -8.1 -1.2 -1.9 -2.7 -4.3 -3.3 -5.2 -0.5 -0.9 -3.1 -4.8 -5.8 -8.7 -2.6 -3.9 -4.7 -7.4 -4.7 -7.9 0 -0.5 -1 -1.8 -2.3 -3 -1.2 -1.1 -3.1 -3.8 -4.2 -5.9 -1.1 -2.1 -2.9 -4.5 -3.9 -5.4 -4.1 -3.4 -2 -9.4 2.3 -6.7 1.2 0.7 2.4 2.1 2.7 3.1 0.3 0.9 2.1 3.8 4 6.2 1.9 2.5 3.4 4.8 3.4 5.1 0 0.7 8 12.4 9.8 14.2 0.7 0.8 2 2.8 2.9 4.5 3 5.9 3.9 6.3 8.5 3.7 6.6 -3.7 15.5 -4.9 33.3 -4.5 19.6 0.4 35.2 2.1 38.3 4.1 1.3 0.9 2.8 2.9 3.4 4.5 1 2.9 1.1 3 7.2 2.5 12.7 -0.9 14.5 -1.5 16.6 -5.7 1.1 -2.1 3.6 -5 5.7 -6.6 3.4 -2.6 4.3 -2.8 14.2 -2.9 5.8 -0.1 13.8 0.3 17.6 0.8 6.3 0.8 18.5 2.1 31.8 3.5 4.4 0.5 4.7 0.3 4.7 -1.9 0 -1.2 0.7 -7.8 1.7 -14.4 1.7 -12.4 3.3 -16.8 5.4 -14.7 0.8 0.8 0.3 8.3 -2 28 -5 41.8 -7.1 48.5 -18.4 58 -5.5 4.6 -8.2 5.4 -20.5 5.6 -10.8 0.1 -12.2 -0.1 -18.5 -2.7 -8.5 -3.6 -13.5 -8.2 -17.7 -16.6 -4.8 -9.4 -4.7 -9 -5.5 -15.9 l-0.7 -6.3 -3.7 0.6 c-2 0.3 -6.6 0.6 -10.4 0.6 l-6.8 0 0.3 8.3 c0.3 11.6 -1.6 19.4 -6.1 25.2 -7.6 10.1 -25 15.2 -43.6 12.8z m10.8 -4 c0.4 -0.3 3 -0.6 5.9 -0.6 3.8 0.1 7 -0.7 11.4 -2.8 3.3 -1.6 6.6 -2.9 7.2 -2.9 0.7 0 1.2 -0.7 1.2 -1.5 0 -0.8 0.5 -1.4 1 -1.2 0.6 0.1 1.8 -1.1 2.8 -2.8 0.9 -1.6 1.9 -3.2 2.2 -3.5 2.6 -2.6 6.4 -35 4.2 -35.8 -0.6 -0.2 -0.8 -1.1 -0.5 -2.2 0.9 -3.4 -4.8 -5.1 -21.2 -6.6 -20.3 -1.8 -24.9 -1.8 -24.2 0 0.5 1.1 -0.7 1.6 -4.8 2.1 -5.8 0.8 -9.3 -0.2 -5.9 -1.7 1.2 -0.5 -0.5 -0.6 -4.3 -0.3 -8.6 0.7 -13.6 4 -15.3 10 -1.4 5.1 -0.9 9 2.7 19.5 5.7 16.7 9.6 23.1 16.6 26.7 6.3 3.2 19.2 5.5 21 3.6z m109.6 -7.4 c7.1 -2.2 9.8 -3.7 14.7 -8.3 5.3 -4.7 6.3 -7.2 9.5 -21.9 1.8 -8.5 1.8 -19.3 -0.1 -21.1 -1.1 -1.1 -6.8 -2.2 -19 -3.6 -9.6 -1 -19.5 -2.2 -21.8 -2.5 -4.1 -0.6 -4.3 -0.5 -3.7 1.4 0.6 2 0.2 2.1 -5.1 2.1 -3.1 0 -7.4 0.5 -9.6 1.2 -2.9 0.8 -4.1 0.9 -4.6 0.1 -0.5 -0.7 -1.9 -0.1 -4 1.8 -3.1 2.8 -3.3 3.4 -3.5 10.2 -0.2 12.6 4.4 27.4 10.1 32.4 4.6 4 11.5 7.7 15.7 8.4 6.6 1.1 17.6 1 21.4 -0.2z"/>
  <path d="M225 283.5 c0 -1 1 -1.5 2.6 -1.5 2.2 0 2.5 0.2 1.4 1.5 -0.7 0.8 -1.9 1.5 -2.6 1.5 -0.8 0 -1.4 -0.7 -1.4 -1.5z"/>
  <path d="M180.5 232 c-0.3 -0.5 -0.3 -1 0.2 -1 0.4 0 1.8 -0.3 3.1 -0.6 1.6 -0.5 2.2 -0.2 2.2 1 0 1.8 -4.5 2.3 -5.5 0.6z"/>
 </g>
 <g fill="#ffffff">
  <path d="M207.9 277.5 c-5.2 -5.2 -9.8 -9.5 -10.4 -9.5 -0.5 0 -1.5 -1.1 -2.2 -2.5 -1.1 -2.4 -0.9 -2.6 3.1 -4.5 2.4 -1 4.9 -2.6 5.6 -3.6 1.2 -1.4 1.2 -1.8 -0.5 -3 -1.1 -0.7 -2.5 -1.8 -3.2 -2.4 -0.7 -0.5 -1.7 -1 -2.3 -1 -0.5 0 -1 -0.4 -1 -0.8 0 -0.4 -2 -2.1 -4.5 -3.6 -2.5 -1.6 -4.5 -3.3 -4.5 -3.7 0 -0.5 -0.6 -0.9 -1.3 -0.9 -0.8 0 -2.7 -1.1 -4.3 -2.5 -1.6 -1.4 -3.7 -2.8 -4.6 -3.1 -4.5 -1.4 0.5 -5.1 8.9 -6.5 12.9 -2.2 13.1 -2.2 13.7 -0.2 0.3 1 1.5 2.5 2.7 3.3 1.1 0.8 3.9 3.2 6 5.3 2.1 2 4.1 3.7 4.4 3.7 0.4 0 1.3 0.8 8.4 7.4 1.5 1.4 3.2 2.6 3.8 2.6 0.6 0 1.3 0.7 1.7 1.5 0.5 1.4 -5.4 4.7 -11.1 6.1 -1.3 0.4 -2.3 1 -2.3 1.5 0 0.5 -0.7 0.9 -1.5 0.9 -3.4 0 -1.3 3.6 3.8 6.7 2.8 1.7 6.3 4.1 7.6 5.2 1.3 1.2 3 2.1 3.8 2.1 0.7 0 1.3 0.4 1.3 0.8 0 0.5 1.1 1.5 2.5 2.2 1.3 0.7 2.2 1.7 1.9 2.1 -0.8 1.4 -12.4 5.9 -15.1 5.9 -0.5 0 -5.2 -4.3 -10.4 -9.5z"/>
  <path d="M317 277 c-2.5 -1.6 -5.2 -3.5 -6 -4.2 -0.9 -0.7 -3.6 -2.9 -6 -4.8 -2.5 -1.9 -4.9 -4 -5.3 -4.7 -0.4 -0.7 -1.2 -1.3 -1.6 -1.3 -1 0 -9.1 -7.3 -9.1 -8.1 0 -0.7 10.4 -2.9 16.1 -3.4 2.1 -0.2 4.3 -0.6 4.9 -1 1.6 -1 1.2 -3.5 -0.7 -4.2 -1 -0.4 -2 -0.9 -2.3 -1.2 -0.3 -0.3 -2.9 -1.7 -5.7 -3.1 -2.9 -1.4 -5.3 -2.8 -5.3 -3.2 0 -0.3 -1.3 -0.9 -3 -1.3 -1.6 -0.4 -3 -1 -3 -1.4 0 -0.4 -2.2 -1.7 -4.9 -3 -2.7 -1.2 -5.2 -2.8 -5.4 -3.6 -0.8 -2 4.4 -3.5 12.1 -3.5 5.4 0 6.9 0.4 8.8 2.3 3.5 3.4 5.6 5.1 9.6 7.7 2.1 1.4 3.8 2.8 3.8 3.3 0 0.4 0.7 0.7 1.5 0.7 0.8 0 1.5 0.5 1.5 1 0 0.6 0.6 1 1.4 1 0.7 0 2.2 1.1 3.2 2.5 1 1.4 2.4 2.5 3 2.5 0.6 0 2.1 0.9 3.3 1.9 l2.3 2 -3.9 1 c-2.1 0.5 -6 1.5 -8.6 2.2 -5.4 1.3 -7 3.5 -4.1 5.5 1 0.7 2.6 1.9 3.4 2.7 0.8 0.7 3.3 2.7 5.4 4.3 6.5 4.7 8.7 7.1 8.1 8.6 -0.4 1.1 -4.5 3.7 -8.5 5.4 -0.3 0.2 -2.6 -1 -5 -2.6z"/>
 </g>
</svg>